<svg xmlns="http://www.w3.org/2000/svg" xmlns:xlink="http://www.w3.org/1999/xlink" width="500" zoomAndPan="magnify" viewBox="0 0 375 374.999991" height="500" preserveAspectRatio="xMidYMid meet" version="1.0"><defs><g/></defs><path fill="#6ec1e4" d="M 101.476562 138.949219 C 100.703125 138.949219 99.933594 138.988281 99.164062 139.0625 C 98.398438 139.140625 97.632812 139.253906 96.878906 139.402344 C 96.121094 139.554688 95.371094 139.742188 94.632812 139.964844 C 93.894531 140.1875 93.167969 140.449219 92.457031 140.746094 C 91.742188 141.039062 91.046875 141.371094 90.363281 141.734375 C 89.683594 142.097656 89.023438 142.492188 88.378906 142.921875 C 87.738281 143.351562 87.117188 143.8125 86.523438 144.300781 C 85.925781 144.789062 85.355469 145.308594 84.808594 145.855469 C 84.261719 146.398438 83.746094 146.972656 83.253906 147.566406 C 82.765625 148.164062 82.304688 148.785156 81.875 149.425781 C 81.449219 150.066406 81.050781 150.730469 80.6875 151.410156 C 80.324219 152.089844 79.992188 152.789062 79.699219 153.5 C 79.402344 154.214844 79.144531 154.941406 78.917969 155.679688 C 78.695312 156.417969 78.507812 157.164062 78.355469 157.921875 C 78.207031 158.679688 78.09375 159.441406 78.019531 160.210938 C 77.941406 160.980469 77.902344 161.75 77.902344 162.523438 L 77.902344 204.886719 C 77.902344 205.660156 77.941406 206.429688 78.019531 207.199219 C 78.09375 207.96875 78.207031 208.730469 78.355469 209.488281 C 78.507812 210.246094 78.695312 210.992188 78.917969 211.730469 C 79.144531 212.46875 79.402344 213.195312 79.699219 213.910156 C 79.992188 214.621094 80.324219 215.320312 80.6875 216 C 81.050781 216.679688 81.449219 217.34375 81.875 217.984375 C 82.304688 218.625 82.765625 219.246094 83.253906 219.84375 C 83.746094 220.4375 84.261719 221.011719 84.808594 221.554688 C 85.355469 222.101562 85.925781 222.621094 86.523438 223.109375 C 87.117188 223.597656 87.738281 224.058594 88.378906 224.488281 C 89.023438 224.917969 89.683594 225.3125 90.363281 225.675781 C 91.046875 226.039062 91.742188 226.371094 92.457031 226.664062 C 93.167969 226.960938 93.894531 227.222656 94.632812 227.445312 C 95.371094 227.667969 96.121094 227.855469 96.878906 228.007812 C 97.632812 228.15625 98.398438 228.269531 99.164062 228.347656 C 99.933594 228.421875 100.703125 228.460938 101.476562 228.460938 C 102.246094 228.460938 103.019531 228.421875 103.785156 228.347656 C 104.554688 228.269531 105.316406 228.15625 106.074219 228.007812 C 106.832031 227.855469 107.578125 227.667969 108.316406 227.445312 C 109.058594 227.222656 109.78125 226.960938 110.496094 226.664062 C 111.210938 226.371094 111.90625 226.039062 112.585938 225.675781 C 113.269531 225.3125 113.929688 224.917969 114.570312 224.488281 C 115.214844 224.058594 115.832031 223.597656 116.429688 223.109375 C 117.027344 222.621094 117.597656 222.101562 118.144531 221.554688 C 118.6875 221.011719 119.207031 220.4375 119.695312 219.84375 C 120.1875 219.246094 120.644531 218.625 121.074219 217.984375 C 121.503906 217.34375 121.898438 216.679688 122.265625 216 C 122.628906 215.320312 122.957031 214.621094 123.253906 213.910156 C 123.546875 213.195312 123.808594 212.46875 124.03125 211.730469 C 124.257812 210.992188 124.445312 210.246094 124.59375 209.488281 C 124.746094 208.730469 124.859375 207.96875 124.933594 207.199219 C 125.007812 206.429688 125.046875 205.660156 125.046875 204.886719 L 125.046875 162.523438 C 125.046875 161.75 125.007812 160.980469 124.933594 160.210938 C 124.859375 159.441406 124.746094 158.679688 124.59375 157.921875 C 124.445312 157.164062 124.257812 156.417969 124.03125 155.679688 C 123.808594 154.941406 123.546875 154.214844 123.253906 153.5 C 122.957031 152.789062 122.628906 152.089844 122.265625 151.410156 C 121.898438 150.730469 121.503906 150.066406 121.074219 149.425781 C 120.644531 148.785156 120.1875 148.164062 119.695312 147.566406 C 119.207031 146.972656 118.6875 146.398438 118.144531 145.855469 C 117.597656 145.308594 117.027344 144.789062 116.429688 144.300781 C 115.832031 143.8125 115.214844 143.351562 114.570312 142.921875 C 113.929688 142.492188 113.269531 142.097656 112.585938 141.734375 C 111.90625 141.371094 111.210938 141.039062 110.496094 140.746094 C 109.78125 140.449219 109.058594 140.1875 108.316406 139.964844 C 107.578125 139.742188 106.832031 139.554688 106.074219 139.402344 C 105.316406 139.253906 104.554688 139.140625 103.785156 139.0625 C 103.019531 138.988281 102.246094 138.949219 101.476562 138.949219 Z M 101.476562 138.949219 " fill-opacity="1" fill-rule="nonzero"/><path fill="#4484F0" d="M 63.835938 150.746094 C 63.203125 151.1875 62.59375 151.65625 62.003906 152.160156 C 61.417969 152.660156 60.855469 153.1875 60.320312 153.742188 C 59.785156 154.300781 59.277344 154.878906 58.796875 155.484375 C 58.320312 156.089844 57.871094 156.71875 57.457031 157.371094 C 57.039062 158.019531 56.652344 158.6875 56.304688 159.375 C 55.953125 160.0625 55.636719 160.765625 55.351562 161.484375 C 55.070312 162.203125 54.824219 162.933594 54.613281 163.675781 C 54.402344 164.417969 54.230469 165.171875 54.09375 165.929688 C 53.957031 166.691406 53.859375 167.453125 53.796875 168.222656 C 53.734375 168.992188 53.710938 169.765625 53.726562 170.535156 C 53.738281 171.308594 53.792969 172.078125 53.882812 172.84375 C 53.972656 173.609375 54.097656 174.371094 54.261719 175.125 C 54.429688 175.878906 54.628906 176.625 54.867188 177.359375 C 55.105469 178.09375 55.378906 178.8125 55.6875 179.523438 C 55.996094 180.230469 56.335938 180.921875 56.714844 181.59375 C 57.089844 182.269531 57.5 182.921875 57.941406 183.554688 L 82.125 218.339844 C 82.566406 218.976562 83.035156 219.585938 83.535156 220.171875 C 84.039062 220.761719 84.566406 221.324219 85.121094 221.859375 C 85.679688 222.394531 86.257812 222.902344 86.863281 223.378906 C 87.46875 223.859375 88.097656 224.304688 88.746094 224.722656 C 89.398438 225.140625 90.066406 225.523438 90.753906 225.875 C 91.441406 226.226562 92.144531 226.542969 92.863281 226.824219 C 93.582031 227.109375 94.3125 227.355469 95.054688 227.566406 C 95.796875 227.773438 96.546875 227.949219 97.308594 228.085938 C 98.066406 228.222656 98.832031 228.320312 99.601562 228.382812 C 100.371094 228.445312 101.144531 228.46875 101.914062 228.453125 C 102.6875 228.4375 103.457031 228.386719 104.222656 228.296875 C 104.988281 228.207031 105.75 228.078125 106.503906 227.914062 C 107.257812 227.75 108.003906 227.550781 108.738281 227.3125 C 109.472656 227.074219 110.191406 226.800781 110.898438 226.492188 C 111.609375 226.183594 112.296875 225.839844 112.972656 225.464844 C 113.648438 225.089844 114.300781 224.679688 114.933594 224.238281 C 115.570312 223.796875 116.179688 223.328125 116.765625 222.828125 C 117.355469 222.324219 117.914062 221.796875 118.453125 221.242188 C 118.988281 220.6875 119.496094 220.105469 119.972656 219.5 C 120.453125 218.894531 120.898438 218.265625 121.316406 217.617188 C 121.734375 216.964844 122.117188 216.296875 122.46875 215.609375 C 122.820312 214.921875 123.136719 214.21875 123.417969 213.5 C 123.703125 212.78125 123.949219 212.050781 124.15625 211.308594 C 124.367188 210.566406 124.542969 209.816406 124.679688 209.054688 C 124.816406 208.296875 124.914062 207.53125 124.976562 206.761719 C 125.035156 205.992188 125.058594 205.222656 125.046875 204.449219 C 125.03125 203.675781 124.980469 202.90625 124.890625 202.140625 C 124.800781 201.375 124.671875 200.613281 124.507812 199.859375 C 124.34375 199.105469 124.140625 198.359375 123.90625 197.625 C 123.667969 196.890625 123.394531 196.171875 123.085938 195.464844 C 122.777344 194.753906 122.433594 194.066406 122.058594 193.390625 C 121.679688 192.71875 121.273438 192.0625 120.832031 191.429688 L 96.648438 156.644531 C 96.207031 156.011719 95.734375 155.398438 95.234375 154.8125 C 94.734375 154.222656 94.207031 153.664062 93.648438 153.125 C 93.09375 152.589844 92.511719 152.085938 91.90625 151.605469 C 91.300781 151.125 90.671875 150.679688 90.023438 150.261719 C 89.375 149.84375 88.707031 149.460938 88.019531 149.109375 C 87.332031 148.757812 86.628906 148.441406 85.910156 148.160156 C 85.191406 147.878906 84.460938 147.632812 83.71875 147.421875 C 82.972656 147.210938 82.222656 147.035156 81.464844 146.898438 C 80.703125 146.761719 79.9375 146.664062 79.167969 146.601562 C 78.398438 146.542969 77.628906 146.519531 76.855469 146.53125 C 76.085938 146.546875 75.316406 146.597656 74.550781 146.6875 C 73.78125 146.777344 73.023438 146.90625 72.269531 147.070312 C 71.511719 147.234375 70.769531 147.4375 70.035156 147.675781 C 69.300781 147.910156 68.578125 148.183594 67.871094 148.492188 C 67.164062 148.800781 66.472656 149.144531 65.800781 149.519531 C 65.125 149.898438 64.472656 150.304688 63.835938 150.746094 Z M 63.835938 150.746094 " fill-opacity="1" fill-rule="nonzero"/><path fill="#00ffe0" d="M 101.523438 228.671875 C 106.332031 228.671875 111.015625 227.210938 115.046875 224.410156 C 120.261719 220.785156 123.753906 215.34375 124.878906 209.09375 C 126.003906 202.84375 124.625 196.527344 121 191.3125 L 96.816406 156.527344 C 93.1875 151.3125 87.75 147.820312 81.5 146.695312 C 75.246094 145.570312 68.933594 146.949219 63.71875 150.574219 C 58.503906 154.199219 55.011719 159.640625 53.886719 165.890625 C 52.765625 172.140625 54.140625 178.457031 57.765625 183.671875 L 81.949219 218.457031 C 85.574219 223.671875 91.015625 227.164062 97.265625 228.289062 C 98.6875 228.546875 100.109375 228.671875 101.527344 228.671875 Z M 77.242188 146.730469 C 78.632812 146.730469 80.027344 146.855469 81.425781 147.105469 C 87.570312 148.210938 92.914062 151.640625 96.476562 156.765625 L 120.65625 191.550781 C 124.21875 196.675781 125.574219 202.878906 124.46875 209.019531 C 123.363281 215.164062 119.933594 220.507812 114.808594 224.070312 C 109.683594 227.632812 103.480469 228.984375 97.335938 227.878906 C 91.195312 226.777344 85.851562 223.34375 82.289062 218.222656 L 58.105469 183.433594 C 54.542969 178.3125 53.191406 172.105469 54.296875 165.964844 C 55.398438 159.820312 58.828125 154.476562 63.953125 150.914062 C 67.914062 148.164062 72.519531 146.726562 77.242188 146.726562 Z M 77.242188 146.730469 " fill-opacity="1" fill-rule="nonzero"/><g fill="#6ec1e4" fill-opacity="1"><g transform="translate(134.293414, 192.030269)"><g><path d="M 4.859375 -22.828125 L 19.984375 -22.828125 L 19.40625 -20.09375 L 12.046875 -20.09375 L 10.640625 -13.515625 L 16.78125 -13.515625 L 16.203125 -10.75 L 10.0625 -10.75 L 7.765625 0 L 0 0 Z M 4.859375 -22.828125 "/></g></g></g><g fill="#6ec1e4" fill-opacity="1"><g transform="translate(151.94051, 192.030269)"><g><path d="M 2.59375 -14.125 C 3.8125 -14.71875 5.0625 -15.148438 6.34375 -15.421875 C 7.625 -15.703125 9.054688 -15.84375 10.640625 -15.84375 C 12.171875 -15.84375 13.4375 -15.722656 14.4375 -15.484375 C 15.445312 -15.242188 16.25 -14.894531 16.84375 -14.4375 C 17.445312 -13.988281 17.867188 -13.453125 18.109375 -12.828125 C 18.347656 -12.203125 18.46875 -11.492188 18.46875 -10.703125 C 18.46875 -10.253906 18.4375 -9.765625 18.375 -9.234375 C 18.320312 -8.710938 18.257812 -8.269531 18.1875 -7.90625 L 16.5 0 L 10.703125 0 L 10.0625 -2.296875 L 9.84375 -2.296875 C 9.082031 -1.460938 8.191406 -0.820312 7.171875 -0.375 C 6.148438 0.0625 5.140625 0.28125 4.140625 0.28125 C 3.554688 0.28125 2.988281 0.195312 2.4375 0.03125 C 1.894531 -0.132812 1.40625 -0.390625 0.96875 -0.734375 C 0.539062 -1.085938 0.195312 -1.53125 -0.0625 -2.0625 C -0.332031 -2.601562 -0.46875 -3.257812 -0.46875 -4.03125 C -0.46875 -5.269531 -0.128906 -6.253906 0.546875 -6.984375 C 1.234375 -7.722656 2.132812 -8.273438 3.25 -8.640625 C 4.363281 -9.015625 5.617188 -9.25 7.015625 -9.34375 C 8.421875 -9.4375 9.832031 -9.484375 11.25 -9.484375 C 11.300781 -9.722656 11.359375 -10.0625 11.421875 -10.5 C 11.492188 -10.945312 11.53125 -11.34375 11.53125 -11.6875 C 11.53125 -12.113281 11.414062 -12.507812 11.1875 -12.875 C 10.96875 -13.25 10.5 -13.4375 9.78125 -13.4375 C 8.9375 -13.4375 8.316406 -13.191406 7.921875 -12.703125 C 7.523438 -12.210938 7.269531 -11.617188 7.15625 -10.921875 L 1.90625 -10.921875 Z M 10.859375 -7.796875 L 10.203125 -7.796875 C 9.515625 -7.796875 8.921875 -7.707031 8.421875 -7.53125 C 7.929688 -7.351562 7.535156 -7.117188 7.234375 -6.828125 C 6.941406 -6.535156 6.722656 -6.207031 6.578125 -5.84375 C 6.429688 -5.488281 6.359375 -5.132812 6.359375 -4.78125 C 6.359375 -4.207031 6.507812 -3.773438 6.8125 -3.484375 C 7.113281 -3.203125 7.46875 -3.0625 7.875 -3.0625 C 8.375 -3.0625 8.867188 -3.238281 9.359375 -3.59375 C 9.847656 -3.957031 10.15625 -4.4375 10.28125 -5.03125 Z M 10.859375 -7.796875 "/></g></g></g><g fill="#6ec1e4" fill-opacity="1"><g transform="translate(171.780023, 192.030269)"><g><path d="M 9.625 -13.15625 C 10.132812 -13.632812 10.703125 -14.078125 11.328125 -14.484375 C 11.867188 -14.816406 12.523438 -15.125 13.296875 -15.40625 C 14.066406 -15.695312 14.929688 -15.84375 15.890625 -15.84375 C 17.035156 -15.84375 17.890625 -15.578125 18.453125 -15.046875 C 19.015625 -14.523438 19.332031 -13.882812 19.40625 -13.125 L 19.625 -13.125 C 20.175781 -13.625 20.773438 -14.078125 21.421875 -14.484375 C 21.972656 -14.816406 22.617188 -15.125 23.359375 -15.40625 C 24.097656 -15.695312 24.890625 -15.84375 25.734375 -15.84375 C 26.972656 -15.84375 27.984375 -15.5 28.765625 -14.8125 C 29.546875 -14.132812 29.9375 -13.257812 29.9375 -12.1875 C 29.9375 -11.632812 29.835938 -10.898438 29.640625 -9.984375 C 29.453125 -9.078125 29.238281 -8.085938 29 -7.015625 L 27.5 0 L 20.40625 0 L 22.359375 -9.375 C 22.429688 -9.738281 22.5 -10.085938 22.5625 -10.421875 C 22.632812 -10.753906 22.671875 -11.03125 22.671875 -11.25 C 22.671875 -11.582031 22.578125 -11.863281 22.390625 -12.09375 C 22.203125 -12.320312 21.925781 -12.4375 21.5625 -12.4375 C 21.101562 -12.4375 20.675781 -12.273438 20.28125 -11.953125 C 19.882812 -11.628906 19.582031 -11.359375 19.375 -11.140625 L 17.03125 0 L 10.3125 0 L 12.296875 -9.375 C 12.335938 -9.6875 12.394531 -10.003906 12.46875 -10.328125 C 12.539062 -10.648438 12.578125 -10.945312 12.578125 -11.21875 C 12.578125 -11.570312 12.488281 -11.863281 12.3125 -12.09375 C 12.132812 -12.320312 11.863281 -12.4375 11.5 -12.4375 C 11.070312 -12.4375 10.660156 -12.28125 10.265625 -11.96875 C 9.867188 -11.65625 9.5625 -11.390625 9.34375 -11.171875 L 6.96875 0 L -0.359375 0 L 2.90625 -15.453125 L 8.765625 -15.453125 L 9.421875 -13.15625 Z M 9.625 -13.15625 "/></g></g></g><g fill="#6ec1e4" fill-opacity="1"><g transform="translate(202.725344, 192.030269)"><g><path d="M 6.9375 0 L -0.359375 0 L 2.90625 -15.453125 L 10.28125 -15.453125 Z M 11.21875 -20.15625 C 11.21875 -19.601562 11.101562 -19.125 10.875 -18.71875 C 10.644531 -18.3125 10.34375 -17.960938 9.96875 -17.671875 C 9.601562 -17.390625 9.179688 -17.175781 8.703125 -17.03125 C 8.222656 -16.882812 7.726562 -16.8125 7.21875 -16.8125 C 6.257812 -16.8125 5.457031 -17.039062 4.8125 -17.5 C 4.164062 -17.957031 3.84375 -18.675781 3.84375 -19.65625 C 3.84375 -20.1875 3.953125 -20.660156 4.171875 -21.078125 C 4.390625 -21.492188 4.679688 -21.835938 5.046875 -22.109375 C 5.421875 -22.390625 5.851562 -22.601562 6.34375 -22.75 C 6.832031 -22.894531 7.34375 -22.96875 7.875 -22.96875 C 8.800781 -22.96875 9.585938 -22.738281 10.234375 -22.28125 C 10.890625 -21.820312 11.21875 -21.113281 11.21875 -20.15625 Z M 11.21875 -20.15625 "/></g></g></g><g fill="#6ec1e4" fill-opacity="1"><g transform="translate(213.256096, 192.030269)"><g><path d="M 6.96875 0 L -0.359375 0 L 4.75 -24.15625 L 12.109375 -24.15625 Z M 6.96875 0 "/></g></g></g><g fill="#6ec1e4" fill-opacity="1"><g transform="translate(223.786848, 192.030269)"><g><path d="M 9.015625 -15.453125 L 10.09375 -4.890625 L 15.78125 -15.453125 L 19.59375 -15.453125 L 10.921875 0 C 10.054688 1.507812 9.179688 2.671875 8.296875 3.484375 C 7.410156 4.296875 6.445312 4.894531 5.40625 5.28125 C 4.363281 5.664062 3.210938 5.882812 1.953125 5.9375 C 0.703125 6 -0.726562 6.03125 -2.34375 6.03125 L -1.796875 3.5625 C -1.003906 3.5625 -0.269531 3.546875 0.40625 3.515625 C 1.09375 3.492188 1.640625 3.425781 2.046875 3.3125 C 2.597656 3.164062 2.992188 2.90625 3.234375 2.53125 C 3.472656 2.164062 3.59375 1.625 3.59375 0.90625 C 3.59375 0.425781 3.550781 -0.125 3.46875 -0.75 C 3.382812 -1.375 3.296875 -2.035156 3.203125 -2.734375 L 1.4375 -15.453125 Z M 9.015625 -15.453125 "/></g></g></g><g fill="#6ec1e4" fill-opacity="1"><g transform="translate(242.368422, 192.030269)"><g><path d="M 2.796875 -22.828125 L 11.578125 -22.828125 L 12.1875 -7.265625 L 18.1875 -22.828125 L 25.296875 -22.828125 L 26.234375 -7.265625 L 32.265625 -22.828125 L 36.046875 -22.828125 L 27.171875 0 L 19.078125 0 L 18.328125 -12.90625 L 12.9375 0 L 4.3125 0 Z M 2.796875 -22.828125 "/></g></g></g><g fill="#6ec1e4" fill-opacity="1"><g transform="translate(276.29686, 192.030269)"><g><path d="M 6.9375 0 L -0.359375 0 L 2.90625 -15.453125 L 10.28125 -15.453125 Z M 11.21875 -20.15625 C 11.21875 -19.601562 11.101562 -19.125 10.875 -18.71875 C 10.644531 -18.3125 10.34375 -17.960938 9.96875 -17.671875 C 9.601562 -17.390625 9.179688 -17.175781 8.703125 -17.03125 C 8.222656 -16.882812 7.726562 -16.8125 7.21875 -16.8125 C 6.257812 -16.8125 5.457031 -17.039062 4.8125 -17.5 C 4.164062 -17.957031 3.84375 -18.675781 3.84375 -19.65625 C 3.84375 -20.1875 3.953125 -20.660156 4.171875 -21.078125 C 4.390625 -21.492188 4.679688 -21.835938 5.046875 -22.109375 C 5.421875 -22.390625 5.851562 -22.601562 6.34375 -22.75 C 6.832031 -22.894531 7.34375 -22.96875 7.875 -22.96875 C 8.800781 -22.96875 9.585938 -22.738281 10.234375 -22.28125 C 10.890625 -21.820312 11.21875 -21.113281 11.21875 -20.15625 Z M 11.21875 -20.15625 "/></g></g></g><g fill="#6ec1e4" fill-opacity="1"><g transform="translate(286.827612, 192.030269)"><g><path d="M 11.03125 -10.921875 C 11.050781 -11.046875 11.070312 -11.164062 11.09375 -11.28125 C 11.125 -11.40625 11.140625 -11.539062 11.140625 -11.6875 C 11.140625 -12.113281 11.0625 -12.507812 10.90625 -12.875 C 10.75 -13.25 10.441406 -13.4375 9.984375 -13.4375 C 9.578125 -13.4375 9.171875 -13.265625 8.765625 -12.921875 C 8.359375 -12.578125 8.15625 -12.113281 8.15625 -11.53125 C 8.15625 -11.15625 8.253906 -10.851562 8.453125 -10.625 C 8.660156 -10.394531 8.929688 -10.207031 9.265625 -10.0625 C 9.609375 -9.914062 9.988281 -9.796875 10.40625 -9.703125 C 10.820312 -9.609375 11.234375 -9.515625 11.640625 -9.421875 C 12.210938 -9.273438 12.753906 -9.097656 13.265625 -8.890625 C 13.785156 -8.691406 14.25 -8.421875 14.65625 -8.078125 C 15.070312 -7.742188 15.398438 -7.332031 15.640625 -6.84375 C 15.878906 -6.351562 16 -5.75 16 -5.03125 C 16 -4.019531 15.765625 -3.171875 15.296875 -2.484375 C 14.828125 -1.804688 14.175781 -1.257812 13.34375 -0.84375 C 12.519531 -0.425781 11.550781 -0.132812 10.4375 0.03125 C 9.320312 0.195312 8.128906 0.28125 6.859375 0.28125 C 4.921875 0.28125 3.316406 0.140625 2.046875 -0.140625 C 0.773438 -0.429688 -0.109375 -0.707031 -0.609375 -0.96875 L 0.140625 -4.5625 L 5 -4.5625 C 4.96875 -4.445312 4.953125 -4.332031 4.953125 -4.21875 C 4.953125 -4.113281 4.953125 -4 4.953125 -3.875 C 4.953125 -3.332031 5.078125 -2.894531 5.328125 -2.5625 C 5.585938 -2.238281 6.03125 -2.078125 6.65625 -2.078125 C 7.34375 -2.078125 7.835938 -2.273438 8.140625 -2.671875 C 8.441406 -3.066406 8.59375 -3.4375 8.59375 -3.78125 C 8.59375 -4.113281 8.460938 -4.40625 8.203125 -4.65625 C 7.953125 -4.90625 7.632812 -5.117188 7.25 -5.296875 C 6.875 -5.484375 6.453125 -5.640625 5.984375 -5.765625 C 5.515625 -5.898438 5.066406 -6.023438 4.640625 -6.140625 C 4.328125 -6.210938 3.972656 -6.332031 3.578125 -6.5 C 3.179688 -6.664062 2.800781 -6.90625 2.4375 -7.21875 C 2.082031 -7.53125 1.785156 -7.929688 1.546875 -8.421875 C 1.304688 -8.921875 1.1875 -9.539062 1.1875 -10.28125 C 1.1875 -11.332031 1.441406 -12.210938 1.953125 -12.921875 C 2.472656 -13.628906 3.144531 -14.195312 3.96875 -14.625 C 4.800781 -15.0625 5.738281 -15.375 6.78125 -15.5625 C 7.820312 -15.75 8.867188 -15.84375 9.921875 -15.84375 C 11.234375 -15.84375 12.476562 -15.722656 13.65625 -15.484375 C 14.832031 -15.242188 15.789062 -14.9375 16.53125 -14.5625 L 15.703125 -10.921875 Z M 11.03125 -10.921875 "/></g></g></g><g fill="#6ec1e4" fill-opacity="1"><g transform="translate(304.330945, 192.030269)"><g><path d="M 7.828125 -7.21875 C 7.734375 -6.695312 7.664062 -6.195312 7.625 -5.71875 C 7.59375 -5.238281 7.578125 -4.804688 7.578125 -4.421875 C 7.578125 -4.203125 7.585938 -3.960938 7.609375 -3.703125 C 7.640625 -3.441406 7.695312 -3.195312 7.78125 -2.96875 C 7.863281 -2.738281 7.984375 -2.546875 8.140625 -2.390625 C 8.296875 -2.234375 8.519531 -2.15625 8.8125 -2.15625 C 9.019531 -2.15625 9.257812 -2.226562 9.53125 -2.375 C 9.8125 -2.519531 10.085938 -2.722656 10.359375 -2.984375 C 10.640625 -3.242188 10.90625 -3.566406 11.15625 -3.953125 C 11.40625 -4.335938 11.601562 -4.769531 11.75 -5.25 L 17.640625 -5.25 L 16.71875 -1.40625 C 16.238281 -1.09375 15.6875 -0.828125 15.0625 -0.609375 C 14.4375 -0.390625 13.773438 -0.210938 13.078125 -0.078125 C 12.390625 0.046875 11.6875 0.132812 10.96875 0.1875 C 10.25 0.25 9.5625 0.28125 8.90625 0.28125 C 7.707031 0.28125 6.59375 0.175781 5.5625 -0.03125 C 4.539062 -0.25 3.644531 -0.617188 2.875 -1.140625 C 2.101562 -1.671875 1.492188 -2.375 1.046875 -3.25 C 0.609375 -4.125 0.390625 -5.207031 0.390625 -6.5 C 0.390625 -7.675781 0.578125 -8.828125 0.953125 -9.953125 C 1.328125 -11.078125 1.953125 -12.078125 2.828125 -12.953125 C 3.703125 -13.828125 4.875 -14.523438 6.34375 -15.046875 C 7.8125 -15.578125 9.648438 -15.84375 11.859375 -15.84375 C 14.253906 -15.84375 16.054688 -15.472656 17.265625 -14.734375 C 18.472656 -13.992188 19.078125 -12.832031 19.078125 -11.25 C 19.078125 -10.601562 18.984375 -9.898438 18.796875 -9.140625 C 18.609375 -8.390625 18.320312 -7.75 17.9375 -7.21875 Z M 12.609375 -11.5 C 12.609375 -12.238281 12.488281 -12.738281 12.25 -13 C 12.007812 -13.269531 11.722656 -13.40625 11.390625 -13.40625 C 11.003906 -13.40625 10.648438 -13.28125 10.328125 -13.03125 C 10.003906 -12.78125 9.710938 -12.441406 9.453125 -12.015625 C 9.191406 -11.597656 8.953125 -11.117188 8.734375 -10.578125 C 8.515625 -10.046875 8.332031 -9.476562 8.1875 -8.875 L 12.296875 -8.875 C 12.335938 -9.164062 12.382812 -9.46875 12.4375 -9.78125 C 12.476562 -10.039062 12.515625 -10.328125 12.546875 -10.640625 C 12.585938 -10.953125 12.609375 -11.238281 12.609375 -11.5 Z M 12.609375 -11.5 "/></g></g></g></svg>