<svg xmlns="http://www.w3.org/2000/svg" viewBox="0 0 800 600" width="800" height="600"><path fill="#FFF" d="M0 0h800v600H0z"/><g transform="translate(101.0 507.0) rotate(0.0 300.5 11.5) scale(1.1254681647940075 1.15)"><svg width="534" height="20" viewBox="0 0 534 20"><path d="M534 0c0 11-9 20-20 20H20C8.9 20 0 11 0 0z" fill="#eff0f2"/></svg></g><g transform="translate(564.0 101.0) rotate(0.0 84.5 19.5) scale(1.061791222944743 1.0411383112202675)"><svg width="159.165" height="37.459" viewBox="0 0 159.165 37.459"><path d="M153.551 26.218a5.589 5.589 0 0 0-4.562 2.343c-2.519-4.737-7.494-7.958-13.234-7.958a14.84 14.84 0 0 0-9.737 3.597c-2.657-6.517-9.035-11.091-16.492-11.091-2.507 0-4.888.526-7.056 1.466a25.076 25.076 0 0 0-.819-1.6v-.022a25.352 25.352 0 0 0-6.882-7.872l-.032-.024a25.783 25.783 0 0 0-1.4-.98l-.06-.039a25.61 25.61 0 0 0-1.443-.866l-.082-.046a25.079 25.079 0 0 0-1.49-.757l-.096-.045a24.842 24.842 0 0 0-1.538-.649c-.036-.014-.071-.029-.108-.042a25.15 25.15 0 0 0-1.589-.54l-.109-.035a24.957 24.957 0 0 0-1.645-.43c-.035-.008-.069-.018-.104-.025a25.592 25.592 0 0 0-1.721-.319L83.28.272A25.318 25.318 0 0 0 79.603 0l-.021.001-.02-.001c-1.25 0-2.477.096-3.678.272l-.072.012c-.58.086-1.154.193-1.721.319l-.104.025c-.555.125-1.104.269-1.645.43l-.109.035a25.15 25.15 0 0 0-1.589.54l-.108.042c-.521.2-1.034.416-1.538.649l-.096.045c-.506.236-1.003.489-1.49.757l-.082.046c-.492.273-.972.562-1.443.866l-.06.039c-.478.311-.945.638-1.4.98l-.032.024a25.378 25.378 0 0 0-6.882 7.872v.022a25.076 25.076 0 0 0-.819 1.6 17.681 17.681 0 0 0-7.056-1.466c-7.457 0-13.835 4.574-16.492 11.091a14.84 14.84 0 0 0-9.737-3.597c-5.74 0-10.715 3.221-13.234 7.958a5.589 5.589 0 0 0-4.562-2.343A5.62 5.62 0 0 0 0 31.832c0 3.108 2.519 5.627 5.614 5.627h147.937c3.095 0 5.614-2.519 5.614-5.627a5.62 5.62 0 0 0-5.614-5.614z" fill="#eff0f2"/></svg></g><g transform="translate(91.0 71.0) rotate(0.0 90.0 21.0) scale(1.130901894260673 1.1212258736218264)"><svg width="159.165" height="37.459" viewBox="0 0 159.165 37.459"><path d="M153.551 26.218a5.589 5.589 0 0 0-4.562 2.343c-2.519-4.737-7.494-7.958-13.234-7.958a14.84 14.84 0 0 0-9.737 3.597c-2.657-6.517-9.035-11.091-16.492-11.091-2.507 0-4.888.526-7.056 1.466a25.076 25.076 0 0 0-.819-1.6v-.022a25.352 25.352 0 0 0-6.882-7.872l-.032-.024a25.783 25.783 0 0 0-1.4-.98l-.06-.039a25.61 25.61 0 0 0-1.443-.866l-.082-.046a25.079 25.079 0 0 0-1.49-.757l-.096-.045a24.842 24.842 0 0 0-1.538-.649c-.036-.014-.071-.029-.108-.042a25.15 25.15 0 0 0-1.589-.54l-.109-.035a24.957 24.957 0 0 0-1.645-.43c-.035-.008-.069-.018-.104-.025a25.592 25.592 0 0 0-1.721-.319L83.28.272A25.318 25.318 0 0 0 79.603 0l-.021.001-.02-.001c-1.25 0-2.477.096-3.678.272l-.072.012c-.58.086-1.154.193-1.721.319l-.104.025c-.555.125-1.104.269-1.645.43l-.109.035a25.15 25.15 0 0 0-1.589.54l-.108.042c-.521.2-1.034.416-1.538.649l-.096.045c-.506.236-1.003.489-1.49.757l-.082.046c-.492.273-.972.562-1.443.866l-.06.039c-.478.311-.945.638-1.4.98l-.032.024a25.378 25.378 0 0 0-6.882 7.872v.022a25.076 25.076 0 0 0-.819 1.6 17.681 17.681 0 0 0-7.056-1.466c-7.457 0-13.835 4.574-16.492 11.091a14.84 14.84 0 0 0-9.737-3.597c-5.74 0-10.715 3.221-13.234 7.958a5.589 5.589 0 0 0-4.562-2.343A5.62 5.62 0 0 0 0 31.832c0 3.108 2.519 5.627 5.614 5.627h147.937c3.095 0 5.614-2.519 5.614-5.627a5.62 5.62 0 0 0-5.614-5.614z" fill="#eff0f2"/></svg></g><g transform="translate(614.0 318.0) rotate(24.747458020696687 64.5 82.5) scale(1.6297344417212019 1.620140804964504)"><svg width="79.154" height="101.843" viewBox="0 0 79.154 101.843"><path d="M33.989 101.786c11.251.854 25.084-8.035 27.949-19.627 1.752-7.091-1.526-13.568 4.754-18.847 4.539-3.816 7.947-7.05 11.081-12.705 2.004-3.615 2.171-14.044-1.821-17.38-5.795-4.844-26.215-5.778-27.721 20.593-.834 14.592-8.097 24.723-16.443 36.271-2.742 3.794-5.538 7.103-.933 10.059.843.963 1.859 1.291 3.134 1.636z" fill="#dddee3"/><path d="M33.007 100.942c7.782 1.188 15.254-10.587 17.247-17.271 2.422-8.124-2.862-14.559-.183-22.461 2.304-6.794 7.766-7.99 7.446-16.241-.175-4.502-5.015-8.737-7.489-12.18-3.938-5.482-5.461-7.201-5.56-13.868-.094-6.334-3.666-15.225-9.547-18.137-10.828-5.365-11.883 18.36-10.762 24.951 2.416 14.212 7.351 14.395 6.864 29.267-.274 8.364-3.692 16.658-5.175 24.957-1.132 6.337-1.84 15.288 4.404 19.5 1.548 1.045 2.514 1.207 2.755 1.483z" fill="#e8e9ec"/><path d="M29.874 93.465c5.004-3.016 6.846-11.68 6.809-18.36-.035-6.329-1.235-12.896-3.595-18.018-3.916-8.501.924-13.032 1.315-21.582.431-9.403-8.97-21.454-16.976-26.227C5.577 2.21.794 15.001.066 24.446c-.939 12.191 8.292 25.737 13.742 36.306 5.799 11.247 8.761 19.289 10.693 31.575.981 2.79 3.771 1.809 5.373 1.138z" fill="#f3f4f6"/></svg></g><g transform="translate(235.0 90.0) rotate(0.0 175.0 175.0) scale(0.9667359954480544 0.9665010728161909)"><svg width="362.043" height="362.131" viewBox="0 0 362.043 362.131"><circle cx="181.021" cy="181.11" fill="#B0D3FF" r="181.021" fill-opacity=".83"/><g fill="#E9F2FF" fill-opacity=".83"><path d="M149.423 328.146c-6.506-2.169-15.616-8.674-17.35-16.048-1.735-7.374-15.615-6.073-15.615-6.073 2.602-13.883.869-24.719 1.736-31.662s14.743-11.712 11.253-14.748-3.88-10.41-3.88-10.41c5.639-9.975 3.47-16.916 3.47-16.916-6.073-16.916-26.024-14.313-26.024-14.313 6.506-5.205 2.602-8.674 2.602-8.674a140.465 140.465 0 0 1-17.784-9.108c-10.843 4.337-10.41-7.807-10.41-7.807a30.97 30.97 0 0 1-21.253-3.037c-25.156 3.037-42.94 25.158-42.94 25.158 3.904 6.939 10.408 13.012 13.445 24.723s9.976 15.177 9.976 15.177 13.011 2.602 32.964 31.229 10.41 5.205 21.687 19.518c11.278 14.313 13.012 16.92 19.518 17.353s29.061 11.711 38.603 11.711 6.508-3.904.002-6.073z"/><path d="M24.072 200.628c.325 6.831 4.664-3.036 4.664-3.036a124.269 124.269 0 0 0-8.35-10.41s7.157-8.35-2.928-13.772c0 0 8.675-12.577 6.939-15.83 0 0-.994.26-11.927 8.023-4.121 2.925-2.386-14.747-2.386-14.747 3.253-3.253 10.41-5.855 12.687-9.108s6.032-7.937 13.663-3.578c4.554 2.602 14.313-4.229 14.313-4.229s5.855 9.434 4.229 14.639c0 0 6.831 0 7.482-12.687 0 0 4.554-8.458 5.855-13.337a142.024 142.024 0 0 0 22.121-13.337s8.588 7.92 6.831-8.458c-.976-9.108 13.337-13.337 13.337-13.337s-2.928-19.193-5.53-22.771c0 0-12.687 16.59-10.41 0s-14.639 1.952-14.639 1.952-2.928 13.337-16.59 13.012l-.976-19.193s22.12-8.783 20.494-13.988c-1.627-5.205 14.639-11.06 14.639-11.06s1.301 7.157 5.855 7.807c4.554.651-6.831 17.241 3.578 11.06s13.337-9.108 13.337-9.108 5.53-13.337 5.205-15.94c0 0 26.347-7.157 29.928-1.952s-16.589 10.41-16.589 10.41-5.53 8.458-4.229 13.012-6.506 1.301-12.361 10.735c0 0 17.005 5.075 33.605-11.06 8.034-7.807 5.757-12.687 5.757-12.687s11.694-8.458 19.346-10.084c7.652-1.627 0-13.012 0-13.012S192.578 9.1 189.325.284c0 0-43.014-4.095-89.332 18.916C53.676 42.208 33.19 75.838 28.519 83.541S5.118 124.744 4.024 143.005s3.459 25.093 1.507 28.996c-1.952 3.904 6.181 4.229 4.88 9.108-1.301 4.88-3.469 10.084 2.82 13.988s10.516-1.301 10.841 5.531zm275.368-14.476c3.737-7.157 16.753-14.801 16.753-14.801s4.717-4.066 1.627-7.319-4.88-2.44-9.922 1.301-14.801-2.765-22.12-13.663-7.807-7.97-7.807-7.97 2.928-19.518-18.217-9.596c-4.88 2.44-14.313-1.952-19.843-4.717s-7.97 3.904-8.133 4.554c-.163.651-10.898 2.765-12.524-1.464-1.627-4.229 8.62-3.904 1.139-9.922 0 0-18.542 3.904-24.235 3.578-5.693-.325 0 4.066-13.012 4.554s-7.645 13.5-7.645 13.5-7.319 4.88-9.271 10.735a13.728 13.728 0 0 1-7.049 7.97v9.271s-9.487 4.392 0 12.524c1.518 5.693 2.061 10.084.001 10.735 0 0-.217 8.241 35.783 6.289 11.494 0 14.747 1.952 15.831 9.108 1.084 7.157 8.675 15.615 9.108 18.868s6.941 9.759-4.12 20.386c0 0 .053 3.904 4.445 7.157s11.06 21.145 11.06 21.145 11.874 11.711 20.169 14.639a33.205 33.205 0 0 0 15.452 1.627s1.139-4.066 2.44-8.295 7.807-4.88 9.922-20.494c2.114-15.615 3.416-30.904 1.301-36.271s-5.815-17.892 1.077-25.699c6.893-7.808 14.053-10.573 17.79-17.73z"/><path d="M297.227 258.499c.35-1.049.729-2.295 1.119-3.619 1.01-3.374 2.267-7.572 3.559-9.62 2.122-3.361 2.656-13.855 2.74-15.925a1.951 1.951 0 0 0-2.595-1.922 28.568 28.568 0 0 0-8.978 5.775c-6.748 6.22-5.676 10.347-4.815 13.663a9.082 9.082 0 0 1 .458 3.184c-.183 1.777-1.934 3.975-3.339 5.741-1.66 2.086-2.86 3.59-2.463 5.282a2.71 2.71 0 0 0 1.551 1.845 9.257 9.257 0 0 0 3.814.72c1.657.009 3.3-.31 4.834-.938a7.03 7.03 0 0 0 4.115-4.186zm57.831-127.362c-1.624-5.351-12.382-37.247-26.084-54.355s-28.299-34.045-44.097-43.957-24.376-15.523-40.038-21.167c-15.663-5.643-10.296 0-10.296 0a19.04 19.04 0 0 0 9.271 4.524s-5.53 4.96-6.587 10.165-6.1 1.546-5.042-.976-2.602-10.816-8.133-10.978c-5.53-.163-10.004 5.855-12.281 9.922s-2.114 8.946-10.41 10.41-7.157 12.849-7.157 12.849l7.645-2.928 1.626 10.898s6.343-.651 8.458-9.759c.163-3.578-4.066-5.042-.163-8.295 3.904-3.253 11.548-8.783 11.548-10.41 0 0 1.301 12.036-3.09 15.615-4.392 3.578-1.789 7.319 3.09 5.042s7.157-4.88 8.62-3.253c1.464 1.627-7.319 7.645-7.319 7.645s-.325 10.084-7.807 9.596c-4.88.325-6.669 5.855-6.669 5.855s-6.669.488-7.319-4.717c-.651-5.205-3.416-6.506-3.904.163s2.44 14.801-6.181 19.518-13.663 3.904-13.663 3.904-.993 2.928 1.943 7.482-.967 14.476-7.961 6.018-8.891 8.946-8.891 8.946-5.665 5.693-5.585 9.922 1.594 7.184 3.85 7.862c5.19 1.561 5.855 6.506 8.458 4.988s2.245-5.118 12.362-4.988c4.554 0 5.054-8.025 6.647-10.627s8.317-13.012 16.125-11.711c4.12.651 1.734 4.121 11.711 4.121 4.554.216-4.121 4.77-2.386 6.289s3.904 5.205 6.723 1.084c2.82-4.121.217-9.324 6.506-10.192 3.036-.433 2.385 7.374 3.47 9.108s5.205 3.904 7.59-6.289c2.385-10.192 6.289-5.855 8.241-2.602s7.374 4.117 13.88 2.816c0 0 4.825 12.904 7.753 14.693s5.693 5.81 9.922 8.679 11.223 14.905 15.452 17.345c0 3.741 2.44 14.964 7.807 10.898s5.205-5.693 9.434-9.596c3.09-1.952 11.548 1.464 15.289-8.62-7.807-9.108-5.855-10.64-15.127-10.443-3.416-6.31-3.741-7.611-1.789-9.075s5.191 5.042 8.369 4.88c3.179-.163 8.384-4.88 11.637-4.88s1.789 4.392 5.042 5.042c3.253.651 3.741 2.602 5.367 7.645 1.627 5.042 7.807 5.855 8.783 14.964 1.518 5.963 5.855 8.133 5.855-1.409.002-9.546 1.129-12.311-.495-17.661z"/><path d="M179.664 67.801c-.089.085-8.726 8.47-6.321 11.462.4.53 1.028.837 1.692.828a6.035 6.035 0 0 0 3.01-1.237c4.87-3.253 4.926-9.387 4.926-9.647a1.953 1.953 0 0 0-3.307-1.406zm3.698 9.026a1.953 1.953 0 0 0 3.481.89c.074-.098 7.347-9.697 4.516-12.285-1.681-1.539-3.716.32-4.585 1.115-4.323 3.951-3.451 10.02-3.412 10.28zM55.755 176.811a1.952 1.952 0 0 0 .783 2.647 26.648 26.648 0 0 1 6.571 4.93c.369.463.928.732 1.52.733v-.005a1.952 1.952 0 0 0 1.522-3.171c-2.388-2.984-7.53-5.798-7.749-5.917a1.953 1.953 0 0 0-2.647.783zm7.246-3.401a1.952 1.952 0 0 0-1.952-1.952 3.559 3.559 0 0 1-1.552-.951 1.952 1.952 0 0 0-2.756 2.765 6.928 6.928 0 0 0 4.308 2.09 1.952 1.952 0 0 0 1.952-1.952zm5.616-5.668a1.952 1.952 0 0 0-1.639-2.221c-.09-.013-9.028-1.448-11.01-7.661a43.464 43.464 0 0 1-1.358-5.58c-.596-3.161-1.027-5.443-4.859-7.937l-.041-.026a1.951 1.951 0 0 0-2.685.639 21.366 21.366 0 0 1-3.621 4.312 3.41 3.41 0 0 0-1.234 2.825c.134 2.415 2.818 4.657 4.133 5.615 1.647 3.159 5.297 9.564 8.235 10.421a53.232 53.232 0 0 0 11.099 1.31c.418.006.836-.01 1.253-.047a1.951 1.951 0 0 0 1.727-1.65zm257.498 114.049c-2.602 5.367-19.355 9.108-19.355 9.108 4.88 8.133-10.735 17.078-10.735 17.078s-5.042 4.88-4.554 6.989c6.181-1.952 4.554.651 6.99 3.904 11.543-7.163 32.088-35.699 37.144-43.515-3.522-.743-6.887 1.068-9.49 6.436zM166.765 48.319a42.411 42.411 0 0 0-11.313 5.832 1.953 1.953 0 0 0 2.36 3.11 39.132 39.132 0 0 1 10.159-5.23l.067-.022a1.95 1.95 0 1 0-1.273-3.69z"/></g></svg></g><g transform="translate(372.0 229.0) rotate(0.0 34.0 40.0) translate(0.0 0.0) scale(1.837837837837838 1.8181818181818181)"><svg width="37" height="26.4" viewBox="0 0 37 26.4"><g fill="#93c3ff"><path d="m18 27-2-.06a10.739 10.739 0 0 0-4.58-9.15l1.16-1.64A12.79 12.79 0 0 1 18 27z"/><path d="M18 27a12.79 12.79 0 0 1 5.42-10.85l1.16 1.64A10.741 10.741 0 0 0 20 27z"/><path d="M26.5 9c4.31 0 9.23 3.39 10.5 4.31-2.75 1.07-4.6 4.41-9.47 5.05-3.25.41-4-.77-4-.77s-2.57-.25-2.57-4C21 11.65 22.64 9 26.5 9z"/></g><path d="M27.8 23.92c4.65-.65 6.41-9.54 9.2-10.61-2.17-.32-5.58 1-13.43 4.28-1.76 4.83.82 6.86 4.23 6.33z" fill="#7eb8ff"/><path d="M12.54 9.85C8.3 7.76 1.68 10.11 0 10.71c2.47 1.48 2.12 9.46 6.63 10.94 3.18 1 5.65-.17 5.91-4.51 3.54-2 3.01-5.82 0-7.29z" fill="#93c3ff"/><path d="M6.63 21.65C2.12 20.17 2.47 12.19 0 10.71c2.21.18 5.39 2.09 12.54 6.43-.26 4.34-2.65 5.55-5.91 4.51z" fill="#7eb8ff"/><path d="M17 11h2v15h-2z" fill="#93c3ff"/><path d="M18 0a11.608 11.608 0 0 0-3 7.38C15 12 18 12 18 12s3 0 3-2.77c0-2.41-3-4.61-3-9.23z" fill="#93c3ff"/><path d="m7 29 3 15h16l3-15z" fill="#b2bdcb"/><path d="M29 32H7a1 1 0 0 1-1-1v-4h24v4a1.079 1.079 0 0 1-1 1z" fill="#7f92a8"/></svg></g><g transform="translate(396.0 262.0) rotate(0.0 83.5 129.0) scale(1.050136140403831 1.0500653238311917)"><svg width="159.027" height="245.699" viewBox="0 0 159.027 245.699"><path d="m110.913 149.69 21.206 21.801-17.869 11.539-8.749-16.651a6.161 6.161 0 0 1 .138-5.98z" fill="#99644c"/><path d="M134.654 174.226a31.058 31.058 0 0 1 7.134 12.758l9.224 33.024-13.046 6.302c-.069-1.939-12.459-21.856-12.459-21.856l-11.258-21.423 17.869-11.539z" fill="#93c3ff"/><path d="M107.358 109.296a29.909 29.909 0 0 0-5.686-8.83l-7.996-8.601-1.349.813c-15.061 9.076-19.107 29.108-8.749 43.318l8.137 11.162 14.941 21.304 14.034-8.313-11.025-39.004a29.965 29.965 0 0 0-2.307-11.849z" fill="#013b84"/><path d="m151.717 220.79-1.099-2.156-10.559 4.756a5 5 0 0 0-2.615 2.764l-1.306 3.391c-.346.9-.946 1.68-1.726 2.248l-5.942 4.32a5.002 5.002 0 0 0-1.63 6.073l.852 1.92a.73.73 0 0 0 .962.371l28.105-12.481z" fill="#016eea"/><path d="m143.109 237.586 15.769-7.003-.691-1.595a19.769 19.769 0 0 0-3.924-5.879l-3.209-3.321-11.078 10.741z" fill="#016eea"/><path d="m157.45 233.815-26.246 11.655a2.653 2.653 0 0 1-3.501-1.348l31.095-13.808a2.653 2.653 0 0 1-1.348 3.501z" fill="#a9cfff"/><path d="M107.358 109.296a29.909 29.909 0 0 0-5.686-8.83l-7.996-8.601-1.349.813c-15.061 9.076-19.107 29.108-8.749 43.318l8.137 11.162 14.941 21.304 14.034-8.313-11.025-39.004a29.965 29.965 0 0 0-2.307-11.849z" fill="#002652" opacity=".25"/><path d="m75.458 46.673 15.498 3.669 4.404-15.963-8.474-1.271-7.203-1.96-1.411 5.186zm12.82-21.822-8.976-6.134 7.797-11.41 8.976 6.134z" fill="#99644c"/><path d="m91.561 31.804-6.085-4.159 15.595-22.82 6.085 4.158z"/><path d="m92.874 36.966-9.025-3.035 18.194-26.623a3.747 3.747 0 0 1 5.206-.979l1.347.921c6.784 4.636 8.115 14.1 2.872 20.428l-4.334 5.231a13.095 13.095 0 0 1-14.26 4.057z" fill="#002652"/><path d="m83.326 5.795-3.719 5.443c-.135.197-.232.42-.282.654l-.504 2.288a1.874 1.874 0 0 1-1.581 1.453l-1.916-.586-3.544 5.186c-3.043 4.453-.898 10.58 4.257 12.162l18.355 5.634z" fill="#99644c"/><path d="m74.083 23.288-1.255-6.011c-.283-1.358.956-2.543 2.299-2.196l5.607 1.442z" fill="#99644c"/><path d="m79.068 33.393 2.466.282a1 1 0 0 1 .637 1.654l-4.423 5.024" fill="#002652" opacity=".1"/><path d="m94.489 29.081-7.657-5.232 4.783-6.998 7.657 5.232a3.41 3.41 0 0 1 .891 4.738l-.935 1.37a3.412 3.412 0 0 1-4.739.89z" fill="#99644c"/><path d="m90.986 34.582-4.494-3.07 4.676-6.843 4.494 3.07z" fill="#99644c"/><g fill="#002652"><path d="m91.02 7.341 9.193 6.282-3.222 4.713c1.389 1.121 2.734 2.169 2.989 2.242.388.11-5.445 1.517-9.082 2.375-.999.236-1.759-.882-1.18-1.729l.207-.302a4.409 4.409 0 0 0-1.153-6.128l-1.939-1.325z"/><path d="m80.47 12.38 2.118 1.448c.246.168.415.427.47.72l.279 1.483c.185.984-.912 1.701-1.738 1.135l-2.563-1.752m-3.342 5.982-.943.513a2.142 2.142 0 0 1-1.684.156l-1.92-.623 1.497-2.192z" opacity=".1"/><path d="m103.156 3.334-1.133-.775c-6.688-4.57-15.814-2.854-20.385 3.834l-.47.688a2.085 2.085 0 0 0 .544 2.896l15.824 10.815 6.982-10.215a5.212 5.212 0 0 0-1.362-7.243zm9.948 32.663c3.347-4.897 2.655-11.307-1.354-15.134 3.373-1.236 7.204-.924 10.32 1.206 5.224 3.57 6.455 10.861 2.749 16.283-3.286 4.808-7.688 5.386-11.265 4.746-2.583-.462-3.546-3.631-1.729-5.525.462-.482.889-1.007 1.279-1.576z"/></g><path d="M112.932 26.962c.43.217.966.096 1.259-.306 1.749-2.409 2.532-4.977 2.393-7.847a1 1 0 0 0-1.999.097c.115 2.397-.543 4.549-2.015 6.577a.998.998 0 0 0 .362 1.479z" fill="#93c3ff"/><path d="M50.976 37.171 15.126 8.606 8.873 16.79l21.386 23.469a37.525 37.525 0 0 0 3.734 3.267l10.97 8.382 7.616-9.97c1.256-1.644.042-3.512-1.603-4.767z" fill="#99644c"/><path d="m44.926 51.88 53.339 14.743 1.266-4.643c2.341-8.589-3.156-17.346-11.908-18.97L49.06 35.852z" fill="#2888ff"/><path d="m73.757 105.744 31.579 17.689 2.5 1.5c3.154-7.112 3.694-15.159 1.007-22.459l-9.868-26.799.44-11.582a20.76 20.76 0 0 0-11.404-19.327l-4.292-2.163c-8.177-4.121-18.017.794-19.633 9.808l-.827 4.611a39.553 39.553 0 0 0 1.165 18.736z" fill="#2888ff"/><path d="m98.457 152.071 11.233 27.908-20.937 3.754-1.65-18.737a6.161 6.161 0 0 1 2.434-5.464z" fill="#99644c"/><path d="M110.975 183.48a31.053 31.053 0 0 1 1.661 14.522l-4.227 34.027-14.467.783c.685-1.816-3.065-24.97-3.065-24.97l-2.124-24.107 20.937-3.754z" fill="#93c3ff"/><path d="m108.937 231.176-.133-2.416-11.58.078a4.996 4.996 0 0 0-3.51 1.47l-2.566 2.573a5.008 5.008 0 0 1-2.488 1.358l-7.182 1.547a5.001 5.001 0 0 0-3.947 4.895l.003 2.1a.73.73 0 0 0 .73.728l30.752-.045z" fill="#016eea"/><path d="m94.271 243.054 17.254-.025.013-1.739a19.783 19.783 0 0 0-1.21-6.964l-1.591-4.335-14.477 5.342z" fill="#016eea"/><path d="m108.911 245.407-28.717.042a2.652 2.652 0 0 1-2.656-2.649l34.023-.049a2.655 2.655 0 0 1-2.65 2.656z" fill="#a9cfff"/><path d="M.748 4.427c.474-.673 1.361-1.009 2.259-.856.173.029.346.077.581.17l9.852 4.866a.834.834 0 0 0 .176.057.634.634 0 0 0 .709-.437l.033-.089a.91.91 0 0 0-.115-.669l-1.217-1.925a3.977 3.977 0 0 1-.633-2.032c-.004-.952.324-1.697.937-2.107l.154-.083c.629-.288 1.452.053 1.684.576l3.486 6.012 1.107 1.192a7.182 7.182 0 0 1 1.647 2.931l.417 1.478c.155.508.481.952.906 1.244l.177.115a7.752 7.752 0 0 1 3.431 5.174 7.744 7.744 0 0 1-1.42 6.044l-.392.529-4.906-2.739-.098-.066c-.592-.467-1.296-.781-2.132-.923l-.007-.001-2.074-.308a23.524 23.524 0 0 1-4.605-1.175l-4.726-1.846-5.014-1.93-.008-.001c-.58-.099-.993-.616-.954-1.264.101-.731.598-1.347 1.294-1.674l-.311-.142C.411 14.383.048 13.8.175 13.16c.218-.821.942-1.426 1.842-1.586l-.269-.126c-.292-.098-.528-.303-.664-.579s-.158-.588-.036-.941c.404-.92 1.463-1.436 2.654-1.237l2.798.774-5.39-3.407a1.146 1.146 0 0 1-.525-.71 1.2 1.2 0 0 1 .163-.921z" fill="#99644c"/><path d="M110.684 112.814c0-3.5-.61-7-1.84-10.34l-4.06-11.02-33.92 5 2.89 9.29.016.009 13.445 61.377 16.154-2.257 4.872-40.239a29.92 29.92 0 0 0 2.443-11.82z" fill="#013b84"/></svg></g><g transform="translate(125.0 352.0) rotate(0.0 -42.0 106.0) translate(-0.3370161359488719 0.0) scale(-1.0083428365644318 1.0066428934335545)"><svg width="82.971" height="148.017" viewBox="0.334 0 82.971 148.017"><g fill="#eff0f2"><path d="M60.967 210.601h-36l-11-62h58zM60.9 131.32c0 4.121-4.489 7.462-10.027 7.462s-16.022-4.464-16.022-4.464 10.484-10.459 16.022-10.459 10.027 3.34 10.027 7.461zM0 123.23c0 4.121 4.489 7.462 10.027 7.462s16.022-4.464 16.022-4.464-10.484-10.459-16.022-10.459S0 119.109 0 123.23zm20.492-36.104c0 4.121 4.489 7.462 10.027 7.462s16.022-4.464 16.022-4.464-10.484-10.459-16.022-10.459-10.027 3.34-10.027 7.461zm18.66-25.516c0 3.434 3.74 6.217 8.354 6.217s13.349-3.72 13.349-3.72-8.735-8.714-13.349-8.714-8.354 2.783-8.354 6.217zm-19.61-29.873c0 3.09 3.366 5.595 7.518 5.595s12.013-3.347 12.013-3.347-7.861-7.842-12.013-7.842-7.518 2.504-7.518 5.594zm8.074-28.695c0 1.68 1.83 3.042 4.087 3.042s6.531-1.82 6.531-1.82S33.96 0 31.703 0s-4.087 1.362-4.087 3.042zM42.23 108.293c0 4.121-4.489 7.462-10.027 7.462s-16.022-4.464-16.022-4.464 10.484-10.459 16.022-10.459 10.027 3.34 10.027 7.461zm41.075-28.628c0 4.121-4.489 7.462-10.027 7.462s-16.022-4.464-16.022-4.464S67.74 72.204 73.278 72.204c5.538-.001 10.027 3.34 10.027 7.461zM65.426 40.768c0 3.262-3.553 5.906-7.936 5.906S44.81 43.14 44.81 43.14s8.298-8.278 12.681-8.278 7.935 2.644 7.935 5.906zm-10.58-27.384c0 3.262-3.553 5.906-7.936 5.906s-12.68-3.534-12.68-3.534 8.298-8.278 12.681-8.278 7.935 2.644 7.935 5.906z"/><path d="m46.345 158.765-.86-2.085a121.46 121.46 0 0 0-2.548-5.77c-1.162-2.437-2.664-5.347-4.698-8.406-1.014-1.53-2.211-3.058-3.546-4.555l-.511-.557c-.11-.126-.362-.365-.538-.544-.389-.39-.784-.787-1.165-1.123a66.023 66.023 0 0 0-2.485-2.171l-5.62-4.682c-1.965-1.691-3.967-3.625-5.683-5.982-.822-1.203-1.636-2.453-2.26-3.832l-.243-.511-.1-.223-.044-.122-.088-.245-.354-.982c-.249-.603-.452-1.43-.646-2.223-.403-1.579-.453-3.188-.334-4.838.251-1.638.713-3.277 1.595-4.681.866-1.391 1.912-2.65 3.138-3.647 1.196-1.04 2.497-1.9 3.826-2.702 2.698-1.532 5.512-2.8 8.367-4.007 5.709-2.373 11.639-4.502 17.065-7.382 2.685-1.432 5.307-3.044 7.185-5.058.255-.236.471-.492.664-.757.18-.25.459-.538.562-.747l.312-.492.156-.246.097-.204c.126-.285.271-.501.391-.833.536-1.215.905-2.538 1.134-3.909.464-2.747.439-5.649.193-8.524a60.77 60.77 0 0 0-.222-2.16l-.031-.27-.008-.067c.032.254.002.031.006.069l-.025-.138-.097-.552-.192-1.101c-.052-.4-.153-.665-.243-.947l-.258-.85c-.161-.567-.481-1.162-.703-1.739-2.154-4.588-6.458-7.934-10.569-11.352-2.066-1.715-4.149-3.437-6.016-5.352-.475-.461-.913-.979-1.363-1.458l-.333-.365-.083-.091-.157-.182-.034-.047-.136-.187-.541-.743-.269-.369-.28-.474-.545-.964c-.394-.66-.593-1.231-.858-1.826-.967-2.368-1.562-4.662-1.97-6.854-.456-2.185-.62-4.284-.76-6.245-.232-3.928.055-7.367.604-10.141.561-2.776 1.358-4.881 2.127-6.2.159-.342.356-.618.535-.851a216.731 216.731 0 0 1 .781-1.063l.409.294-.237.513-.287.621c-.12.241-.248.523-.331.877-.478 1.337-.859 3.406-.999 6.052-.126 2.651.058 5.898.662 9.543.319 1.818.724 3.74 1.293 5.706a31.843 31.843 0 0 0 2.235 5.898c.24.462.473 1 .731 1.347l.367.591c.064.101.111.196.187.304l.291.352.586.708.147.178.037.045c-.218-.26-.038-.05-.077-.099l.078.075.314.302c.427.399.823.821 1.281 1.212 1.767 1.602 3.767 3.154 5.896 4.791 2.117 1.65 4.368 3.393 6.52 5.525 2.139 2.118 4.199 4.698 5.502 7.79.289.794.637 1.523.862 2.382l.331 1.29c.109.432.224.879.254 1.221l.153 1.108.076.555.019.139.027.208.005.072.021.29c.057.771.102 1.55.133 2.335.113 3.135.044 6.394-.702 9.69-.379 1.641-.922 3.296-1.75 4.864-.18.383-.476.811-.718 1.208l-.192.301-.176.232-.353.464c-.316.448-.614.693-.924 1.046a7.929 7.929 0 0 1-.957.917c-2.668 2.276-5.662 3.624-8.618 4.829-5.945 2.334-11.978 3.955-17.632 6.305-2.823 1.151-5.572 2.448-7.995 4.111-1.191.845-2.359 1.713-3.292 2.757a11.358 11.358 0 0 0-2.269 3.31c-.551 1.174-.699 2.43-.751 3.643l.084.924c.026.305.039.607.133.913.156.604.25 1.222.486 1.768.203.56.356 1.092.706 1.755l.451.942.112.235.056.117c-.075-.17-.003-.018-.012-.043l.03.051.237.406c.579 1.104 1.328 2.101 2.077 3.071 3.107 3.82 7.061 6.902 10.619 10.126a50.019 50.019 0 0 1 2.557 2.512c.432.438.793.851 1.154 1.26.195.224.334.365.571.654l.54.666c1.429 1.763 2.521 3.595 3.469 5.328a41.484 41.484 0 0 1 2.307 4.991c.613 1.574 1.131 3.029 1.512 4.369a60.642 60.642 0 0 1 1.532 6.249l.381 2.232z"/></g></svg></g><g transform="translate(717.0 125.0) rotate(0.0 -99.0 196.5) scale(-0.9940856921949212 0.9957105902562245)"><svg width="199.178" height="394.693" viewBox="0 0 199.178 394.693"><path d="m190.452 28.285-27.32 51.293a5.008 5.008 0 0 1-7.106 1.874l-13.007-8.257 13.603-21.428 19.948-24.984z" fill="#c78982"/><path d="m69.645 308.881-22.419 35.448-7.636 12.076-4.17 6.596-1.235 1.952-3.991 6.309-1.967 3.112-2.99 4.733-.173.271-7.143.194c-1.692.048-3.485.097-5.142.149-.935.024-1.823.053-2.628.077-2.064.061-3.56.113-3.756.129l.266-.586.751-1.661 5.896-13.058 6.615-14.646 14.11-47.588a23.78 23.78 0 0 1 2.552-5.712l20.409-33.132 27.544-.812-11.841 39.571c-.662 2.205-1.693 4.427-3.052 6.578z" fill="#013b84"/><path d="m133.637 175.2 1.117 14.992-13.415 17.663-45.176 82.288s-30.987-5.918-30.785-6.444l41.551-107.386z" fill="#013b84"/><path d="m35.419 363.001-1.232 1.951-3.992 6.311-1.966 3.112-2.992 4.73-.172.273s-3.307.086-7.142.191c-1.693.049-3.483.097-5.142.15-.933.026-1.82.052-2.629.079-2.064.06-3.558.112-3.753.127l.262-.584.753-1.663 5.895-13.056 2.835-6.277z" fill="#c78982"/><path d="M.076 389.527h24.107l1.329-3.707a18.722 18.722 0 0 0 .851-9.355l-.683-4.157-9.776-5.51-9.837 5.51-4.916 7.773a7.442 7.442 0 0 0-1.152 4.082z" fill="#016eea"/><path d="M3.997 394.693h16.608c.936 0 1.767-.511 2.068-1.27l1.681-4.24H.248l1.681 4.24c.301.759 1.133 1.27 2.068 1.27z" fill="#93c3ff"/><path d="M12.38 364.671h10.03c1.034 0 1.704.838 1.496 1.873l-1.946 9.686c-.208 1.034-1.215 1.873-2.249 1.873H9.682c-1.034 0-1.704-.838-1.496-1.873l1.946-9.686c.207-1.034 1.214-1.873 2.248-1.873z" fill="#016eea"/><path d="M14.023 386.427h-3.444a2.59 2.59 0 0 0-2.583 2.583 2.59 2.59 0 0 0 2.583 2.583h3.444a2.59 2.59 0 0 0 2.583-2.583 2.59 2.59 0 0 0-2.583-2.583z" fill="#93c3ff"/><path d="m192.191 13.589.738 8.27c-.392 4.267-3.088 7.831-6.841 9.532-.802.378-1.642.65-2.529.838-.161-.007-.314-.034-.456-.052l-.507-.068-12.525 2.747 11.715-14.919.106-1.276a3.91 3.91 0 0 0 .399-.513l4.908-7.178c.528-.769 4.992 2.619 4.992 2.619z" fill="#c78982"/><path d="M44.716 386.763v.004c-.028 0-.024-.004 0-.004z" fill="#6EC1E4"/><path d="M162.937 75.683a4.506 4.506 0 0 1-1.632 6.222l-35.827 20.485c-5.856 3.497-13.438 1.585-16.936-4.271l-.953-1.596a7.704 7.704 0 0 1 2.664-10.565l43.802-25.146zm-115.579 88.99 17.627-46.867a4.646 4.646 0 0 1 5.984-2.713l16.162 6.079-19.262 51.216a6 6 0 0 1-7.728 3.504l-9.279-3.49a6.001 6.001 0 0 1-3.504-7.729z" fill="#004E92"/><path d="m66.366 136.289-2.324-8.236a19.999 19.999 0 0 1 7.17-21.372l51.368-31.98 14.64 92.306-42.937 5.338z" fill="#004E92"/><path d="m73.722 310.014-6.416 35.098-2.187 11.957-1.196 6.531-.353 1.933-1.141 6.247-.564 3.081-.86 4.686-.048.268 6.97.664c1.649.16 3.398.326 5.009.487.913.086 1.776.173 2.56.25 2.01.196 3.46.347 3.643.375l.211-.573.599-1.624 4.721-12.77 5.293-14.324 16.351-41.912 11.985-29.588-23.83-15.643-18.449 38.419c-1.133 2.134-1.908 4.31-2.298 6.438z" fill="#c78982"/><path d="m140.894 177.72-.109 25.764-22.47 80.232c-1.611 6.121-8.31 9.353-14.102 6.801-7.46-3.286-15.948-7.094-15.902-7.387l11.034-106.89z" fill="#013b84"/><path d="m104.78 389.253 4.399-2.62c1.213-.723 2.057-1.958 2.244-3.284.274-1.949-.927-3.602-2.818-3.878l-8.342-1.216c-5.272-.769-9.621-3.836-11.919-8.407l-2.751-5.472-3.66 2.059c-.882.496-1.337 1.523-1.057 2.387l.801 2.472-5.018 1.97c-3.399 1.334-7.004.72-9.286-1.583l-3.524-3.555c-.617-.623-1.795-.156-1.976.784l-3.079 15.996.434 3.765z" fill="#016eea"/><path d="m82.799 185.962 58.036 10.949.059-53.225c-.159-13.37-4.868-68-4.868-68l-45.622 37.361-1.362 54.395z" fill="#004E92"/><path d="m57.412 385.959.523 1.583c.942 2.848 3.552 4.665 6.7 4.665h33.473a4.15 4.15 0 0 0 1.905-.481l7.997-4.17H80.448c-.488 0-.93-.191-1.232-.531-1.516-1.71-3.736-2.668-6.188-2.668H58.654c-.824-.001-1.489.856-1.242 1.602z" fill="#93c3ff"/><path d="m93.565 72.225 20.745.013-.025 42.42c-.001 1.913-2.429 2.733-3.59 1.212L93.55 93.401zM198.882 6.42c-.057-.005-.279-.083-.279-.083s-2.899-.759-2.897-.745a99.733 99.733 0 0 0-1.469-.353 2.759 2.759 0 0 0-.966-.09c-.976.023-3.223.156-4.148.241-.811.096-1.519.316-2.187.712-1.154.505-5.326 2.77-5.326 2.77l1.785 5.75 2.792-2.976 4.286 3.783s.385.781 1.166 2.229 3.456 1.642 2.953.276l-.763-2.248-.021.017a15.285 15.285 0 0 1-.302-.849 2.898 2.898 0 0 0-.442-.787c-.349-.421-.887-1.151-1.392-1.83l1.06.482s.737.699 1.988 2.02c1.251 1.32 4.176.678 3.266-.611l-1.528-2.034c-.257-.311-.406-.554-.715-.926a3.034 3.034 0 0 0-.731-.757 133.773 133.773 0 0 0-2.204-1.619l1.104-.088 2.091.311c.511.047 1.028.039 1.503-.146 1.484-.548 2.082-2.039 1.376-2.449z" fill="#c78982"/><path d="M198.882 6.42c-.057-.005-.279-.083-.279-.083s-2.899-.759-2.897-.745a99.733 99.733 0 0 0-1.469-.353 2.759 2.759 0 0 0-.966-.09c-.976.023-3.223.156-4.148.241-.811.096-1.519.316-2.187.712-1.154.505-5.326 2.77-5.326 2.77l1.785 5.75 2.792-2.976 4.286 3.783s.385.781 1.166 2.229 3.456 1.642 2.953.276l-.763-2.248-.021.017a15.285 15.285 0 0 1-.302-.849 2.898 2.898 0 0 0-.442-.787c-.349-.421-.887-1.151-1.392-1.83l1.06.482s.737.699 1.988 2.02c1.251 1.32 4.176.678 3.266-.611l-1.528-2.034c-.257-.311-.406-.554-.715-.926a3.034 3.034 0 0 0-.731-.757 133.773 133.773 0 0 0-2.204-1.619l1.104-.088 2.091.311c.511.047 1.028.039 1.503-.146 1.484-.548 2.082-2.039 1.376-2.449z" fill="#002652" opacity=".1"/><path d="M191.441 12.244s1.409-3.42 2.684-6.624c1.274-3.204-1.926-3.905-3.342-1.631l-3.777 6.063z" fill="#c78982"/><path d="m195.3.011-.057-.006-.057-.005-.034.007-2.549.038c-.806.039-1.55.027-2.066.035-.346.025-.635.055-.992.193-.946.313-3.019 1.035-3.908 1.353-.714.277-1.381.672-1.894 1.255l-6.367 6.794c-1.021 1.107-1.402 2.733-.849 4.16l2.772 7.709a8.33 8.33 0 0 1-.142 6.404l8.867 4.069c.096-.133.181-.254.271-.381-.172.277-.277.437-.277.437 3.168-4.458 3.323-5.423 4.195-7.431l.327-.836c1.684-3.883-2.625-7.598-1.095-11.561l-4.418-2.237-.939 1.459c-.939 1.459-3.495 1.22-2.95.297s4.084-6.893 4.084-6.893l3.852-1.358 2.087-.263c.522-.066.998-.25 1.427-.553 1.348-.907 1.497-2.498.712-2.686z" fill="#c78982"/><path d="m168.074 76.95-5.511 5.6a2 2 0 0 1-2.828.023L144.297 67.38a2 2 0 0 1-.023-2.828l5.511-5.6a2 2 0 0 1 2.828-.023l15.438 15.193a2 2 0 0 1 .023 2.828zm-94.839 85.284-2.627 8.635c-1.558 5.12-6.972 8.008-12.092 6.45l-6.268-1.907c-4.976-1.514-7.783-6.775-6.269-11.751l2.707-8.896a2 2 0 0 1 2.496-1.331l20.722 6.305a1.998 1.998 0 0 1 1.331 2.495z" fill="#004E92"/><path d="m97.516 60.397 24.029-8.643a13.715 13.715 0 0 0-15.051-8.904l-6.535 1.035c-4.117.652-6.624 4.89-5.213 8.812z" fill="#002652"/><path d="m106.534 50.914 1.955 5.435 4.844-1.743 6.54 18.182 1.817-.653 3.95-16.783-7.71-8.858z" fill="#002652"/><g fill="#c78982"><path d="m118.765 54.43 7.609 20.773c.824 2.484-1.012 5.049-3.629 5.071l-24.267.202z"/><path d="m121.618 67.689 3.654-1.415c1.523-.589 1.614-2.709.148-3.428l-6.415-3.143zm-19.706-21.848-.479.159a3.857 3.857 0 0 0-2.447 4.875l4.216 12.714 16.953-5.622-1.181-3.561c-2.346-7.077-9.985-10.912-17.062-8.565z"/><path d="m123.862 69.048-10.628 3.525-4.48-13.51 10.627-3.525z"/><path d="m96.495 44.841-4.987 1.794c-5.45 1.96-8.278 7.967-6.318 13.417l8.873 24.669 31.717-11.409-6.357-17.674c-3.35-9.312-13.615-14.146-22.928-10.797z"/></g><path d="m120.118 58.278-2.414.868c-.28.101-.509.309-.636.579l-.643 1.366c-.426.906.455 1.875 1.397 1.536l2.921-1.051" fill="#002652" opacity=".1"/><path d="m108.348 66.671 1.344 3.737a9.167 9.167 0 0 0 8.065 6.047 5.201 5.201 0 0 1 3.133-6.654l3.212-1.155 3.602 10.014c.893 2.483-.994 5.087-3.632 5.011l-10.456-.301a3.744 3.744 0 0 1-3.416-2.476l-5.782-16.073a3.07 3.07 0 0 1 3.93 1.85z" fill="#002652"/><path d="m122.42 75.55 2.629-.313a1.095 1.095 0 0 0 .901-1.457l-1.055-2.934-2.326.837a2.397 2.397 0 0 0-1.444 3.067c.191.535.729.867 1.295.8z" fill="#c78982"/><path d="m109.731 42.982 4.022 11.181a4.183 4.183 0 0 1-2.52 5.352l-3.968 1.427a4.041 4.041 0 0 0-2.435 5.171l3.353 9.323a3.641 3.641 0 0 1-4.976 4.526l-18.215-8.578a2.02 2.02 0 0 1-.967-2.689l5.798-16.128a13.35 13.35 0 0 1 11.31-8.775z" fill="#002652"/><path d="M97.316 44.536 86.159 48.55c-5.806 2.089-8.82 8.489-6.732 14.295l6.8 18.904a1.873 1.873 0 0 0 2.007 1.223l21.868-2.89z" fill="#002652"/><path d="m96.696 63.266.326-.117a4.809 4.809 0 0 1 6.153 2.898l3.136 8.72-4.419-.911a6.145 6.145 0 0 1-4.203-3.168l-2.228-4.256a2.255 2.255 0 0 1 1.235-3.166z" fill="#c78982"/><path d="m35.525 362.83-18.406-4.673 31.495-60.465 23.044 7.351-24.623 52.352a10.002 10.002 0 0 1-11.51 5.435zm49.674-1.567-20.204-2.259 28.134-80.536 23.622 5.205L95.9 354.162a10.002 10.002 0 0 1-10.701 7.101z" fill="#013b84"/><path d="m87.831 358.068 2.132-5.769 16.351-41.912 11.985-29.588-23.83-15.644-18.449 38.419c-1.132 2.136-1.908 4.312-2.298 6.439l-6.416 35.099-2.187 11.956-.183.999h22.895z" fill="#013b84"/><path d="m95.856 169.194-37.879-11.947a4.936 4.936 0 0 0-5.157 1.409l-2.778 3.091a8.194 8.194 0 0 0 .618 11.572l3.937 3.538a4.932 4.932 0 0 0 3.249 1.264l30.666.313z" fill="#c78982"/><path d="M126.544 179.87v.011a.491.491 0 0 1-.404.556l-8.828 1.404a6.498 6.498 0 0 1-2.847-.18l-4.06-1.146-2.336 1.191a3.679 3.679 0 0 1-2.639.281l-7.626-2.016-.062-.017a8.065 8.065 0 0 0-.803-.146l.006-.011-16.263-2.578 11.158-7.16c2.016-2.319 3.65-2.454 5.835-2.651l3.841-.337a7.803 7.803 0 0 1 4.021.842 8.94 8.94 0 0 0 2.409.854c2.375.505 6.099 1.376 6.099 1.376a1.465 1.465 0 0 1 1.016 1.398v.14a1.426 1.426 0 0 1-1.527 1.314c-.792-.051-5.515-.303-6.992-.354h-.011a.572.572 0 0 0-.539.371.536.536 0 0 0 .174.612l1.46 1.14 8.817 3.701 8.188-.124a1.932 1.932 0 0 1 1.909 1.499z" fill="#c78982"/></svg></g><g transform="translate(505.0 76.0) rotate(30.286596823261263 23.0 52.0) translate(0.0 0.0) scale(1.0550216738148208 1.0669621331035262)"><svg width="43.601" height="50.611" viewBox="0 0 43.601 50.611"><path d="M21.801 47.448h3.847v28.213h-3.847z" fill="#2888ff"/><path d="M31.479 73.096H16.098c-6.061 4.247-7.531 12.604-3.284 18.665s12.604 7.531 18.665 3.284 7.531-12.604 3.284-18.665a13.41 13.41 0 0 0-3.284-3.284z" fill="#ccd4dc"/><g fill="#93c3ff"><path d="M32.06 0S21.801 26.93 21.801 41.036v8.977l3.847-6.412S28.213 20.518 32.06 0z"/><path d="M21.801 47.448S16.671 8.976 10.259 0a81.074 81.074 0 0 1 14.106 44.884z"/><path d="M0 21.801s21.801 12.824 21.801 29.495l2.565-6.412c-.001 0-2.565-16.03-24.366-23.083z"/><path d="M21.801 56.025v-6.012c0-3.847 2.565-8.977 10.259-19.236a104.391 104.391 0 0 0 11.542-19.236s-3.444 21.398-17.953 35.907a13.204 13.204 0 0 0-3.848 8.577z"/></g></svg></g><g transform="translate(300.0 85.0) rotate(0.0 41.0 48.5) translate(0.0 0.0) scale(2.2162162162162162 2.2045454545454546)"><svg width="37" height="26.763" viewBox="0 0 37 26.763"><g fill="#93c3ff"><path d="m18 27-2-.06a10.739 10.739 0 0 0-4.58-9.15l1.16-1.64A12.79 12.79 0 0 1 18 27z"/><path d="M18 27a12.79 12.79 0 0 1 5.42-10.85l1.16 1.64A10.741 10.741 0 0 0 20 27z"/><path d="M26.5 9c4.31 0 9.23 3.39 10.5 4.31-2.75 1.07-4.6 4.41-9.47 5.05-3.25.41-4-.77-4-.77s-2.57-.25-2.57-4C21 11.65 22.64 9 26.5 9z"/></g><path d="M27.8 23.92c4.65-.65 6.41-9.54 9.2-10.61-2.17-.32-5.58 1-13.43 4.28-1.76 4.83.82 6.86 4.23 6.33z" fill="#7eb8ff"/><path d="M12.54 9.85C8.3 7.76 1.68 10.11 0 10.71c2.47 1.48 2.12 9.46 6.63 10.94 3.18 1 5.65-.17 5.91-4.51 3.54-2 3.01-5.82 0-7.29z" fill="#93c3ff"/><path d="M6.63 21.65C2.12 20.17 2.47 12.19 0 10.71c2.21.18 5.39 2.09 12.54 6.43-.26 4.34-2.65 5.55-5.91 4.51z" fill="#7eb8ff"/><path d="M17 11h2v15h-2z" fill="#93c3ff"/><path d="M18 0a11.608 11.608 0 0 0-3 7.38C15 12 18 12 18 12s3 0 3-2.77c0-2.41-3-4.61-3-9.23z" fill="#93c3ff"/><path d="m7 29 3 15h16l3-15z" fill="#b2bdcb"/><path d="M29 32H7a1 1 0 0 1-1-1v-4h24v4a1.079 1.079 0 0 1-1 1z" fill="#7f92a8"/></svg></g><g transform="translate(315.0 290.0) rotate(0.0 23.0 52.0) translate(0.0 0.0) scale(1.0550216738148208 1.0669621331035262)"><svg width="43.601" height="47.799" viewBox="0 0 43.601 47.799"><path d="M21.801 47.448h3.847v28.213h-3.847z" fill="#2888ff"/><path d="M31.479 73.096H16.098c-6.061 4.247-7.531 12.604-3.284 18.665s12.604 7.531 18.665 3.284 7.531-12.604 3.284-18.665a13.41 13.41 0 0 0-3.284-3.284z" fill="#ccd4dc"/><g fill="#93c3ff"><path d="M32.06 0S21.801 26.93 21.801 41.036v8.977l3.847-6.412S28.213 20.518 32.06 0z"/><path d="M21.801 47.448S16.671 8.976 10.259 0a81.074 81.074 0 0 1 14.106 44.884z"/><path d="M0 21.801s21.801 12.824 21.801 29.495l2.565-6.412c-.001 0-2.565-16.03-24.366-23.083z"/><path d="M21.801 56.025v-6.012c0-3.847 2.565-8.977 10.259-19.236a104.391 104.391 0 0 0 11.542-19.236s-3.444 21.398-17.953 35.907a13.204 13.204 0 0 0-3.848 8.577z"/></g></svg></g><g transform="translate(246.0 175.0) rotate(0.0 34.0 40.0) translate(0.0 0.0) scale(1.837837837837838 1.8181818181818181)"><svg width="37" height="26.4" viewBox="0 0 37 26.4"><g fill="#93c3ff"><path d="m18 27-2-.06a10.739 10.739 0 0 0-4.58-9.15l1.16-1.64A12.79 12.79 0 0 1 18 27z"/><path d="M18 27a12.79 12.79 0 0 1 5.42-10.85l1.16 1.64A10.741 10.741 0 0 0 20 27z"/><path d="M26.5 9c4.31 0 9.23 3.39 10.5 4.31-2.75 1.07-4.6 4.41-9.47 5.05-3.25.41-4-.77-4-.77s-2.57-.25-2.57-4C21 11.65 22.64 9 26.5 9z"/></g><path d="M27.8 23.92c4.65-.65 6.41-9.54 9.2-10.61-2.17-.32-5.58 1-13.43 4.28-1.76 4.83.82 6.86 4.23 6.33z" fill="#7eb8ff"/><path d="M12.54 9.85C8.3 7.76 1.68 10.11 0 10.71c2.47 1.48 2.12 9.46 6.63 10.94 3.18 1 5.65-.17 5.91-4.51 3.54-2 3.01-5.82 0-7.29z" fill="#93c3ff"/><path d="M6.63 21.65C2.12 20.17 2.47 12.19 0 10.71c2.21.18 5.39 2.09 12.54 6.43-.26 4.34-2.65 5.55-5.91 4.51z" fill="#7eb8ff"/><path d="M17 11h2v15h-2z" fill="#93c3ff"/><path d="M18 0a11.608 11.608 0 0 0-3 7.38C15 12 18 12 18 12s3 0 3-2.77c0-2.41-3-4.61-3-9.23z" fill="#93c3ff"/><path d="m7 29 3 15h16l3-15z" fill="#b2bdcb"/><path d="M29 32H7a1 1 0 0 1-1-1v-4h24v4a1.079 1.079 0 0 1-1 1z" fill="#7f92a8"/></svg></g><g transform="translate(315.0 346.0) rotate(0.0 32.0 72.0) translate(0.0 0.0) scale(1.467856241829316 1.47733218429719)"><svg width="42.92" height="50.09" viewBox="0 0 42.92 50.09"><path d="M21.801 47.448h3.847v28.213h-3.847z" fill="#177AF6"/><path d="M31.479 73.096H16.098c-6.061 4.247-7.531 12.604-3.284 18.665s12.604 7.531 18.665 3.284 7.531-12.604 3.284-18.665a13.41 13.41 0 0 0-3.284-3.284z" fill="#ccd4dc"/><g fill="#93c3ff"><path d="M32.06 0S21.801 26.93 21.801 41.036v8.977l3.847-6.412S28.213 20.518 32.06 0z"/><path d="M21.801 47.448S16.671 8.976 10.259 0a81.074 81.074 0 0 1 14.106 44.884z"/><path d="M0 21.801s21.801 12.824 21.801 29.495l2.565-6.412c-.001 0-2.565-16.03-24.366-23.083z"/><path d="M21.801 56.025v-6.012c0-3.847 2.565-8.977 10.259-19.236a104.391 104.391 0 0 0 11.542-19.236s-3.444 21.398-17.953 35.907a13.204 13.204 0 0 0-3.848 8.577z"/></g></svg></g><g transform="translate(216.0 359.0) rotate(0.0 72.0 78.5) scale(1.0778362437406905 1.0800844804931238)"><svg width="133.601" height="145.359" viewBox="0 0 133.601 145.359"><path d="m73.534 51.584-13.735-8.061 7.85-14.581 7.002 4.939 6.561 3.562-2.564 4.723zm8.072-38.27 10.726 1.771L90.08 28.72l-10.727-1.771z" fill="#99644c"/><path d="m76.679 2.434 7.272 1.201-4.503 27.27-7.272-1.2z"/><path d="m67.658 32.531 8.62 4.045 5.254-31.815A3.747 3.747 0 0 0 78.447.455l-1.61-.266C68.73-1.15 61.226 4.77 60.641 12.967l-.484 6.776a13.095 13.095 0 0 0 7.501 12.788z" fill="#002652"/><path d="m96.103 16.604-1.074 6.504a1.869 1.869 0 0 1-.248.668l-1.217 2.002a1.874 1.874 0 0 0 .138 2.143l1.79.901-1.024 6.197c-.878 5.321-6.664 8.266-11.483 5.846l-17.159-8.616z" fill="#99644c"/><path d="m90.691 35.634 5.062-3.476c1.143-.785 1.066-2.499-.144-3.176l-5.049-2.833z" fill="#99644c"/><path d="m80.105 39.49-1.977-1.501a1 1 0 0 0-1.604.756l-.276 6.688" fill="#002652" opacity=".1"/><path d="m71.941 25.716 9.15 1.511 1.381-8.363-9.15-1.511a3.41 3.41 0 0 0-3.919 2.808l-.271 1.636a3.41 3.41 0 0 0 2.809 3.919z" fill="#99644c"/><path d="m72.023 23.934 5.37.886-1.35 8.177-5.37-.886z" fill="#99644c"/><g fill="#002652"><path d="m89.474 12.403-10.985-1.814-.93 5.633c-1.779-.15-3.475-.322-3.71-.446-.357-.188 2.887 4.86 4.922 7.994.559.861 1.881.579 2.048-.434l.059-.361a4.409 4.409 0 0 1 5.069-3.632l2.317.382z"/><path d="m93.616 23.336-2.531-.418a1.123 1.123 0 0 0-.837.195l-1.227.879c-.814.583-.516 1.859.471 2.022l3.063.506m-1.72 6.633.327 1.022c.179.56.58 1.021 1.11 1.277l1.818.877.433-2.619z" opacity=".1"/><path d="m83.474 1.118 1.354.223c7.992 1.32 13.401 8.868 12.082 16.861l-.136.822a2.084 2.084 0 0 1-2.395 1.716l-18.911-3.122L77.483 5.41a5.213 5.213 0 0 1 5.991-4.292zM53.708 17.847c.966-5.852 5.896-10.006 11.44-10.001-1.583-3.225-4.567-5.647-8.292-6.262-6.243-1.031-12.172 3.387-13.241 9.867-.949 5.746 1.833 9.207 4.86 11.215 2.186 1.452 5.073-.173 5.068-2.798 0-.666.053-1.34.165-2.021z"/></g><path d="M59.996 11.501a1 1 0 0 1-.698-1.091c.401-2.95 1.61-5.347 3.694-7.325a1 1 0 1 1 1.377 1.451c-1.741 1.653-2.752 3.663-3.09 6.146a.998.998 0 0 1-1.283.819z" fill="#93c3ff"/><path d="m85.361 87.248-35.47-42.476 3.705-3.072c6.854-5.682 17.099-4.296 22.196 3.003L98.249 76.86z" fill="#2888ff"/><path d="m46.521 100.651-39.324 1.685a29.927 29.927 0 0 1 9.463-20.394L37.532 62.45l4.819-10.541a20.76 20.76 0 0 1 18.881-12.128h4.806c9.157 0 15.732 8.817 13.119 17.594l-1.337 4.49a39.555 39.555 0 0 1-9.472 16.207z" fill="#2888ff"/><path d="m24.69 126.91 54.226 17.379c8.005 2.566 16.569-1.875 19.086-9.896l.193-.616a12.481 12.481 0 0 0-6.134-14.801L23.989 83.448c-4.13-1.727-8.364-.339-11.407 2.484-1.775 1.647-3 3.8-3.725 6.11l-.847 2.699c-4.229 13.485 3.222 27.855 16.68 32.169z" fill="#2888ff"/><path d="m95.49 132.551-22.533-10.807-5.738 20.482 15.885 2.949c3.714.69 7.52-.585 10.069-3.373l3.391-3.709c1.591-1.74 1.052-4.522-1.074-5.542z" fill="#99644c"/><path d="M69.595 120.131a31.056 31.056 0 0 0-14.297-3.042l-34.275.955-2.162 14.326c1.873-.508 24.563 5.438 24.563 5.438l23.794 4.419 5.738-20.482z" fill="#93c3ff"/><path d="M23.3 117.71h2.567l-4.322 11.815a4.997 4.997 0 0 1-2.569 2.807l-3.288 1.546a4.998 4.998 0 0 0-2.118 1.883l-3.882 6.237a5 5 0 0 1-5.94 2.062l-1.976-.712a.73.73 0 0 1-.439-.933l10.428-28.93z" fill="#016eea"/><path d="m7.166 127.503 5.851-16.232 1.641.575a19.771 19.771 0 0 1 6.146 3.491l3.543 2.962-9.917 11.822z" fill="#016eea"/><path d="M9.896 112.928.158 139.944a2.653 2.653 0 0 0 1.596 3.395l11.537-32.007a2.653 2.653 0 0 0-3.395 1.596z" fill="#a9cfff"/><path d="M133.495 45.242c-.365-.738-1.19-1.206-2.101-1.192a2.803 2.803 0 0 0-.6.079l-10.482 3.297a.85.85 0 0 1-.183.03.633.633 0 0 1-.633-.541l-.019-.093a.905.905 0 0 1 .217-.643l1.498-1.715a3.973 3.973 0 0 0 .937-1.911c.15-.94-.06-1.726-.603-2.226l-.14-.106c-.578-.382-1.443-.171-1.753.311l-4.368 5.406-1.277 1.008a7.186 7.186 0 0 0-2.077 2.644s-1.181 1.647-1.724 2.487c-1.568 2.423-4.918 8.934-3.901 10.864l.307.583 5.268-1.954.107-.051c.657-.371 1.401-.573 2.249-.585h.007l2.098.013a23.495 23.495 0 0 0 4.731-.455l4.953-1.099 5.251-1.138h.008c.588-.009 1.075-.456 1.137-1.103.012-.738-.384-1.422-1.021-1.853l.329-.093c.593-.073 1.041-.593 1.014-1.245-.089-.845-.712-1.554-1.576-1.85l.285-.083c.303-.052.568-.218.745-.47s.247-.557.18-.925c-.258-.971-1.225-1.643-2.433-1.629l-2.883.336 5.848-2.54c.285-.116.508-.338.628-.621a1.213 1.213 0 0 0-.023-.937z" fill="#99644c"/><path d="m84.271 81.104 30.915-34.402 7.66 6.884-16.67 27.023a37.44 37.44 0 0 1-3.065 3.902l-4.197 4.67a7.526 7.526 0 0 1-10.629.567l-3.733-3.356a3.744 3.744 0 0 1-.281-5.288z" fill="#99644c"/></svg></g><g transform="translate(432.0 149.0) rotate(0.0 25.0 30.0) translate(0.0 0.0) scale(1.3513513513513513 1.3636363636363635)"><svg width="37" height="26.4" viewBox="0 0 37 26.4"><g fill="#93c3ff"><path d="m18 27-2-.06a10.739 10.739 0 0 0-4.58-9.15l1.16-1.64A12.79 12.79 0 0 1 18 27z"/><path d="M18 27a12.79 12.79 0 0 1 5.42-10.85l1.16 1.64A10.741 10.741 0 0 0 20 27z"/><path d="M26.5 9c4.31 0 9.23 3.39 10.5 4.31-2.75 1.07-4.6 4.41-9.47 5.05-3.25.41-4-.77-4-.77s-2.57-.25-2.57-4C21 11.65 22.64 9 26.5 9z"/></g><path d="M27.8 23.92c4.65-.65 6.41-9.54 9.2-10.61-2.17-.32-5.58 1-13.43 4.28-1.76 4.83.82 6.86 4.23 6.33z" fill="#7eb8ff"/><path d="M12.54 9.85C8.3 7.76 1.68 10.11 0 10.71c2.47 1.48 2.12 9.46 6.63 10.94 3.18 1 5.65-.17 5.91-4.51 3.54-2 3.01-5.82 0-7.29z" fill="#93c3ff"/><path d="M6.63 21.65C2.12 20.17 2.47 12.19 0 10.71c2.21.18 5.39 2.09 12.54 6.43-.26 4.34-2.65 5.55-5.91 4.51z" fill="#7eb8ff"/><path d="M17 11h2v15h-2z" fill="#93c3ff"/><path d="M18 0a11.608 11.608 0 0 0-3 7.38C15 12 18 12 18 12s3 0 3-2.77c0-2.41-3-4.61-3-9.23z" fill="#93c3ff"/><path d="m7 29 3 15h16l3-15z" fill="#b2bdcb"/><path d="M29 32H7a1 1 0 0 1-1-1v-4h24v4a1.079 1.079 0 0 1-1 1z" fill="#7f92a8"/></svg></g><g transform="translate(254.0 246.0) rotate(0.0 48.0 57.0) translate(0.0 0.0) scale(2.5945945945945947 2.590909090909091)"><svg width="37" height="26.632" viewBox="0 0 37 26.632"><g fill="#93c3ff"><path d="m18 27-2-.06a10.739 10.739 0 0 0-4.58-9.15l1.16-1.64A12.79 12.79 0 0 1 18 27z"/><path d="M18 27a12.79 12.79 0 0 1 5.42-10.85l1.16 1.64A10.741 10.741 0 0 0 20 27z"/><path d="M26.5 9c4.31 0 9.23 3.39 10.5 4.31-2.75 1.07-4.6 4.41-9.47 5.05-3.25.41-4-.77-4-.77s-2.57-.25-2.57-4C21 11.65 22.64 9 26.5 9z"/></g><path d="M27.8 23.92c4.65-.65 6.41-9.54 9.2-10.61-2.17-.32-5.58 1-13.43 4.28-1.76 4.83.82 6.86 4.23 6.33z" fill="#7eb8ff"/><path d="M12.54 9.85C8.3 7.76 1.68 10.11 0 10.71c2.47 1.48 2.12 9.46 6.63 10.94 3.18 1 5.65-.17 5.91-4.51 3.54-2 3.01-5.82 0-7.29z" fill="#93c3ff"/><path d="M6.63 21.65C2.12 20.17 2.47 12.19 0 10.71c2.21.18 5.39 2.09 12.54 6.43-.26 4.34-2.65 5.55-5.91 4.51z" fill="#7eb8ff"/><path d="M17 11h2v15h-2z" fill="#93c3ff"/><path d="M18 0a11.608 11.608 0 0 0-3 7.38C15 12 18 12 18 12s3 0 3-2.77c0-2.41-3-4.61-3-9.23z" fill="#93c3ff"/><path d="m7 29 3 15h16l3-15z" fill="#b2bdcb"/><path d="M29 32H7a1 1 0 0 1-1-1v-4h24v4a1.079 1.079 0 0 1-1 1z" fill="#7f92a8"/></svg></g><g transform="translate(80.0 149.0) rotate(0.0 103.5 185.5) scale(1.112939127068615 1.1191080919659502)"><svg width="185.994" height="331.514" viewBox="0 0 185.994 331.514"><path d="m8.925 299.499-5.422 5.563c-2.735 2.806-1.668 7.499 2.011 8.846l5.97 2.187s12.861 13.295 14.348 13.895c2.044.823 20.471 1.498 20.471 1.498l.265-.724c.942-2.573-.19-4.445-2.636-5.681l-12.2-1.664-7.353-20.418z" fill="#99644c"/><path d="m15.531 276.606-6.796 24.701.241.592 14.065 4.412 39.429-87.586-.073-.073c-6.886-6.905-18.376-5.745-23.744 2.395-2.273 3.448-4.532 6.914-6.904 10.295-2.321 3.308-4.741 6.61-6.345 10.342-2.291 5.331-3.328 11.141-4.861 16.713l-5.001 18.179a.084.084 0 0 0-.011.03z" fill="#99644c"/><path d="m43.933 325.082-12.2-1.664-7.286-20.231 38.023-84.463-.073-.073c-6.886-6.905-18.376-5.745-23.744 2.395-2.273 3.448-4.532 6.914-6.905 10.295-2.321 3.308-4.741 6.61-6.345 10.342-2.291 5.331-3.328 11.141-4.861 16.713l-5.001 18.179-.009.031-6.316 22.958-.29-.066-5.422 5.563c-2.735 2.806-1.668 7.499 2.011 8.846l5.97 2.187s12.861 13.295 14.349 13.895c2.044.823 20.471 1.498 20.471 1.498l.265-.724c.941-2.573-.191-4.444-2.637-5.681z" fill="#002652" opacity=".1"/><path d="m8.925 299.499-5.422 5.563c-2.735 2.806-1.668 7.499 2.011 8.846l5.97 2.187s12.865 14.286 14.348 14.895c1.705.699 20.471.498 20.471.498l.265-.724a5.404 5.404 0 0 0-2.636-6.681l-12.2-.664-18.094-11.866z" fill="#013b84"/><path d="m13.428 314.359-11.313-4.144L0 320.288l9.924 3.635z" fill="#013b84"/><path d="m47.198 141.364 7.84 78.395-20.312 2.138-18.53-80.533z" fill="#99644c"/><path d="m49.911 291.045 8.983 23.992.542.338 13.979-4.676-19.435-94.065-.102-.016c-9.627-1.554-19.534-4.518-19.108 5.223 0 0 1.764 31.165 2.654 35.129 1.271 5.661 3.839 10.975 5.865 16.388l6.611 17.657.011.03z" fill="#99644c"/><path d="m56.187 308.426-3.178 7.088c-1.603 3.575 1.013 7.615 4.931 7.615h6.358s16.649 8.061 18.252 8.112c2.202.07 21.801 0 21.801 0v-.771a5.404 5.404 0 0 0-4.773-5.367l-12.465-1.466-15.21-17.238z" fill="#99644c"/><path d="m56.187 308.426-3.178 7.088c-1.603 3.575 1.013 7.615 4.931 7.615h6.358s16.65 8.051 18.252 8.112c1.841.07 21.801 0 21.801 0v-.771a5.404 5.404 0 0 0-4.773-5.367l-12.465-1.466-22.354-5.514z" fill="#013b84"/><path d="M65.526 320.831H53.478l1.479 10.186h10.569z" fill="#013b84"/><path d="M97.813 20.124c2.317-5.412 11.248-6.782 19.947-3.058 7.421 3.177 12.277 9.034 12.105 14.046-.044 1.298-1.414 2.126-2.608 1.616z" fill="#002652"/><path d="M102.281 12.979c1.973-4.609 9.576-5.774 16.981-2.604 6.318 2.704 10.452 7.691 10.305 11.959-.038 1.105-1.204 1.811-2.22 1.376z" fill="#002652"/><path d="m109.777 11.976-.47-.201a3.74 3.74 0 0 0-4.91 1.967l-5.103 11.921 15.944 6.824 1.423-3.325c2.843-6.646-.238-14.341-6.884-17.186zM79.163 70.773l-2.878-23.264 9.26-12.789 6.893 4.991 6.046 4.379z" fill="#99644c"/><path d="m46.283 119.486-37.352-3.802a29.93 29.93 0 0 1 10.732-19.756L34.74 83.535a43.963 43.963 0 0 0 11.137-13.773l8.709-16.844a19.138 19.138 0 0 1 18.207-10.31l.252.096a19.615 19.615 0 0 1 12.637 18.498l-.155 18.237z" fill="#2888ff"/><path d="M86.72 60.583 85.527 79.44l-21.293 21.185L41.45 76.654a43.53 43.53 0 0 0 4.429-6.891l8.71-16.844c3.485-6.744 10.423-7.556 18.004-7.076l1.21.077c7.616.482 13.399 7.047 12.917 14.663z" fill="#2888ff"/><path d="m23.782 92.566 24.992 24.117-39.898-4.06 2.02-6.838a13.96 13.96 0 0 1 4.926-7.151z" fill="#016eea"/><path d="m103.367 21.659 9.994 4.278-5.438 12.704-9.994-4.278z" fill="#99644c"/><path d="m85.265 39.058 6.198 6.677 13.87-32.402a3.746 3.746 0 0 0-1.969-4.917l-1.549-.663c-7.378-3.158-15.838.996-17.849 8.766l-2.224 8.593a14.981 14.981 0 0 0 3.523 13.946z" fill="#002652"/><path d="m116.661 28.31-2.594 6.06c-.094.22-.23.42-.399.589l-1.659 1.654a1.872 1.872 0 0 0-.377 2.113l.296.639-5.017 11.722a3.746 3.746 0 0 1-4.931 1.964l-21.712-9.399 3.26-7.37z" fill="#99644c"/><path d="m105.914 45.056 5.818-.433a1.873 1.873 0 0 0 1.549-2.679l-3.191-6.643z" fill="#99644c"/><path d="m94.383 49.359-1.19-.569a2 2 0 0 0-2.819 1.387l-1.438 6.747" fill="#002652" opacity=".1"/><path d="m91.527 29.684 5.004 2.142-3.261 7.619-5.004-2.142z" fill="#99644c"/><path d="m113.328 34.55-3.047-1.304a1.12 1.12 0 0 0-.86-.01l-1.401.562c-.929.372-.945 1.682-.024 2.076l3.542 1.517m-5.558 7.391.064.936c.035.512.279.989.675 1.315l1.361 1.124.914-2.134z" fill="#002652" opacity=".1"/><path d="m95.42 26.843 15.264 6.535L112.109 31l-15.608-6.682z" fill="#93c3ff"/><path d="m90.972 31.374 7.536 3.226 3.336-7.793-7.536-3.226a3.355 3.355 0 0 0-4.404 1.763l-.696 1.625a3.356 3.356 0 0 0 1.764 4.405z" fill="#99644c"/><path d="m111.224 22.65-10.235-4.381-2.247 5.249c-1.691-.57-3.298-1.142-3.496-1.317-.302-.268 1.644 5.409 2.873 8.937.337.969 1.689 1.011 2.092.067l1.437-3.357a1.124 1.124 0 0 1 1.475-.591l1.591.681a3.905 3.905 0 0 0 5.126-2.052z" fill="#002652"/><path d="M88.401 4.281c1.71-3.993 8.298-5.004 14.715-2.256s10.234 8.211 8.525 12.205"/><path d="m94.805 10.725 12.05 5.158-9.948 23.24a7.492 7.492 0 0 1-9.834 3.939l-5.164-2.21z" fill="#002652"/><path d="m104.165 10.01 14.189 6.073-3.463 8.09a7.492 7.492 0 0 1-9.834 3.939l-7.302-3.125z" fill="#002652"/><path d="m108.881 113.924 13.663 5.361 32.214 6.624 2.943-9.869-28.666-12.985a37.51 37.51 0 0 0-4.65-1.73l-13.229-3.946-3.925 13.162a2.783 2.783 0 0 0 1.65 3.383z" fill="#99644c"/><path d="M111.854 31.986a.123.123 0 0 0-.121.076l-2.141 5.001a.118.118 0 0 0-.001.094.118.118 0 0 0 .066.067l3.379 1.439a.123.123 0 0 0 .121-.076l2.141-5.001a.118.118 0 0 0 .001-.094.118.118 0 0 0-.066-.067l-3.338-1.429a.13.13 0 0 0-.041-.01m.063-.998c.125.008.25.037.371.089l3.338 1.429c.571.245.835.905.591 1.475l-2.141 5.001a1.126 1.126 0 0 1-1.475.591l-3.338-1.429a1.124 1.124 0 0 1-.591-1.475l2.141-5.001c.192-.45.642-.709 1.104-.68z" fill="#93c3ff"/><path d="m107.04 112.117-37.15-43.62 14.799-15.994 33.987 47.428z" fill="#2888ff"/><path d="m49.49 62.821 3.491-6.722c6.561-11.706 22.656-13.561 31.709-3.655l-4.701-5.983a12.442 12.442 0 0 0-12.386-4.481l-22.375 4.785 4.171 7.571z" fill="#68abff"/><g fill="#002652"><path d="m74.903 90.444 2.062-10.229a1.124 1.124 0 0 1 1.876-.592l3.34 3.183z" opacity=".1"/><path d="M90.144 26.617c2.317-5.412-2.857-12.82-11.556-16.544-7.421-3.177-15.011-2.647-18.519.938-.908.928-.562 2.49.632 3.002z"/><path d="M93.049 36.01c2.154-5.033-2.656-11.918-10.744-15.381-6.9-2.954-13.956-2.461-17.218.872-.844.863-.523 2.316.587 2.791z"/><path d="M87.484 38.516c4.198 1.797 7.907-3.305 4.937-6.773-1.618-1.888-3.849-3.543-6.527-4.69-5.999-2.568-12.299-1.751-15.358 1.668-.793.886-.575 2.293.391 2.707z"/><path d="M87.936 43.427c3.093 1.324 5.825-2.435 3.636-4.99-1.192-1.391-2.836-2.61-4.808-3.456-4.419-1.892-9.061-1.291-11.314 1.229-.583.652-.424 1.69.288 1.994zm10.172-23.993c2.316-5.413-2.857-12.819-11.556-16.543C79.131-.286 71.541.244 68.033 3.83c-.908.928-.562 2.49.632 3.002z"/><path d="M114.337 18.64c2.316-5.413-2.857-12.82-11.556-16.544-7.422-3.176-15.011-2.647-18.52.939-.908.928-.562 2.49.632 3.002z"/></g><path d="m144.968 119.091.13-4.594 10.345.652a4.036 4.036 0 0 0 2.582-.717l1.639-1.192a8.454 8.454 0 0 1 3.679-1.509l2.167-.339 8.543-3.394a.713.713 0 0 1 .999.395c.208.641-.094 1.37-.585 1.988a4.186 4.186 0 0 1-1.841 1.257l-2.817.997a2.168 2.168 0 0 0-1.283 1.248l-.001.033a1.805 1.805 0 0 0 1.307 2.417l14.055 2.969c.992.306 1.63 1.144 1.585 1.988a.529.529 0 0 1-.589.458l-.034-.005-12.186-1.26a.396.396 0 0 0-.195.76l12.319 5.231c.901.498 1.368 1.445 1.156 2.266a.523.523 0 0 1-.67.318l-.022-.008-12.933-4.043a.238.238 0 0 0-.196.427l10.604 6.557c.827.634 1.134 1.64.801 2.411a.532.532 0 0 1-.718.232l-.018-.009-11.761-5.781c-.223-.11-.472.277-.275.441l6.188 6.304c.742.729.92 1.768.494 2.497a.53.53 0 0 1-.739.13l-.015-.01-7.35-6.432a5.687 5.687 0 0 0-2.739-1.298l-3.788-.684a29.341 29.341 0 0 1-5.495-2.434l-2.381-1.361a6.912 6.912 0 0 0-3.43-.909l-1.482-.17a5.704 5.704 0 0 1-5.05-5.827z" fill="#99644c"/><path d="M58.925 178.23 47.88 119.744l-1.169-2.738c-3.933-9.213-14.505-13.597-23.804-9.871l-2.194.879c-11.118 4.454-16.519 17.078-12.065 28.195l21.462 53.566z" fill="#016eea"/><path d="m66.493 209.307-1.392 11.886-31.505-.93-15.166-65.902 39.405 19.633zM22.642 93.412l-7.912 6.099a26.155 26.155 0 0 0-8.489 29.978l4.31 11.375 37.312-18.461.91-5.72z" fill="#016eea"/></svg></g></svg>