<svg xmlns="http://www.w3.org/2000/svg" viewBox="0 0 1280 720" width="1280" height="720"><path fill="#FFF" d="M0 0h1280v720H0z"/><g transform="translate(700.0 198.0) rotate(0.0 26.5 26.5) translate(0.0 0.0) scale(0.7225039533235182 0.7222676478604525)"><svg width="73.356" height="73.38" viewBox="0 0 73.356 73.38"><path d="m38.808 4.595 5.44 18a9.779 9.779 0 0 0 6.53 6.52l18 5.45a2.22 2.22 0 0 1 0 4.25l-18 5.45a9.779 9.779 0 0 0-6.53 6.52l-5.44 18a2.22 2.22 0 0 1-4.26 0l-5.45-18a9.747 9.747 0 0 0-6.52-6.52l-18-5.45a2.22 2.22 0 0 1 0-4.25l18-5.45a9.747 9.747 0 0 0 6.52-6.52l5.45-18a2.22 2.22 0 0 1 4.26 0z" fill="#fff"/><path d="M36.685 73.382c-.494 0-.991-.071-1.479-.214a5.199 5.199 0 0 1-3.537-3.537l-5.443-17.976a6.736 6.736 0 0 0-4.515-4.517L3.709 41.686A5.183 5.183 0 0 1 .62 39.155a5.186 5.186 0 0 1-.396-3.976 5.21 5.21 0 0 1 3.486-3.486l17.999-5.45a6.736 6.736 0 0 0 4.517-4.515l5.451-18.003C32.481.987 35.388-.599 38.149.211a5.198 5.198 0 0 1 3.533 3.524l5.437 17.991a6.766 6.766 0 0 0 4.526 4.516l18.002 5.45a5.183 5.183 0 0 1 3.089 2.531 5.186 5.186 0 0 1 .396 3.976 5.208 5.208 0 0 1-3.486 3.486l-17.999 5.45a6.767 6.767 0 0 0-4.529 4.521L41.68 69.653a5.17 5.17 0 0 1-2.5 3.088 5.195 5.195 0 0 1-2.495.641zm-.752-5.453-.003.012zm1.483-.024.003.011-.003-.011zM7.912 36.69l15.535 4.704a12.719 12.719 0 0 1 8.523 8.525l4.708 15.546 4.699-15.548a12.758 12.758 0 0 1 8.535-8.524l15.533-4.703-15.535-4.704a12.754 12.754 0 0 1-8.532-8.519l-4.7-15.552-4.708 15.549a12.719 12.719 0 0 1-8.525 8.523zm59.997.746h.01zM37.427 5.441l-.004.012.004-.012z" fill="#222433"/></svg></g><g transform="translate(409.0 70.0) rotate(0.0 21.5 21.5) translate(0.0 0.0) scale(0.6383989548072927 0.6381715642623924)"><svg width="65.79" height="65.813" viewBox="0 0 65.79 65.813"><path d="m35.808 1.595 5.44 18a9.779 9.779 0 0 0 6.53 6.52l18 5.45a2.22 2.22 0 0 1 0 4.25l-18 5.45a9.779 9.779 0 0 0-6.53 6.52l-5.44 18a2.22 2.22 0 0 1-4.26 0l-5.45-18a9.747 9.747 0 0 0-6.52-6.52l-18-5.45a2.22 2.22 0 0 1 0-4.25l18-5.45a9.747 9.747 0 0 0 6.52-6.52l5.45-18a2.22 2.22 0 0 1 4.26 0z" fill="#6EC1E4"/></svg></g><g transform="translate(106.0 315.0) rotate(0.0 480.5 178.0) translate(0.0 0.0) scale(0.6735059171804981 0.6736172869874548)"><svg width="1425.377" height="524.036" viewBox="0 0 1425.377 524.036"><path d="M3 525.49V74.6C3.028 35.601 34.651 4 73.65 4h38.172l265.561-.05 137.815.007 376.56.019 174.589.009L1315 3h38.172c38.999 0 70.622 31.601 70.65 70.6v450.89" fill="#fff"/><path d="M3 528.49a3 3 0 0 1-3-3V74.6C.029 34.016 33.069 1 73.65 1h38.172L377.383.95l688.965.035L1314.988 0h38.184c40.583 0 73.622 33.016 73.65 73.598V524.49a3 3 0 1 1-6 0V73.6c-.026-37.273-30.374-67.6-67.65-67.6H1315l-248.641.985-688.975-.035L111.823 7H73.65C36.375 7 6.027 37.326 6 74.602V525.49a3 3 0 0 1-3 3z" fill="#222433"/><path d="M1277.11 293.61H149.49a3 3 0 1 1 0-6h1127.62a3 3 0 1 1 0 6z" fill="#222433"/><path d="M1277.11 525V275.13c.005-38.812 31.458-70.278 70.27-70.3h5.8c38.831 0 70.31 31.479 70.31 70.31V525" fill="#fff"/><path d="M1423.49 528a3 3 0 0 1-3-3V275.14c0-37.115-30.195-67.31-67.31-67.31h-5.801c-37.086.021-67.264 30.212-67.27 67.301V525a3 3 0 1 1-6 0V275.13c.006-40.395 32.874-73.277 73.268-73.3h5.803c40.423 0 73.31 32.887 73.31 73.31V525a3 3 0 0 1-3 3z" fill="#222433"/><path d="M149.49 525V275.14c0-38.831-31.479-70.31-70.31-70.31h-5.8c-38.812.022-70.265 31.488-70.27 70.3V525l1420.752-.093" fill="#fff"/><g fill="#222433"><path d="M149.49 528c-.081 0-.162-.003-.241-.01L3.11 528a3 3 0 0 1-3-3V275.13c.006-40.395 32.874-73.277 73.268-73.3h5.803c40.423 0 73.31 32.887 73.31 73.31v246.85l1271.372-.083a3 3 0 0 1 0 6l-1274.13.083a2.82 2.82 0 0 1-.243.01zM73.38 207.83c-37.086.021-67.264 30.212-67.27 67.301V522l140.38-.009V275.14c0-37.115-30.195-67.31-67.31-67.31zm1276.94 113.01c-7.609 0-13.8-6.191-13.8-13.8s6.19-13.8 13.8-13.8 13.8 6.19 13.8 13.8-6.191 13.8-13.8 13.8zm0-21.6c-4.301 0-7.8 3.499-7.8 7.8s3.499 7.8 7.8 7.8 7.8-3.499 7.8-7.8-3.499-7.8-7.8-7.8z"/><path d="M76.32 320.84c-7.609 0-13.8-6.191-13.8-13.8s6.19-13.8 13.8-13.8 13.8 6.19 13.8 13.8-6.191 13.8-13.8 13.8zm0-21.6c-4.301 0-7.8 3.499-7.8 7.8s3.499 7.8 7.8 7.8 7.8-3.499 7.8-7.8-3.499-7.8-7.8-7.8z"/></g></svg></g><g transform="translate(401.0 62.0) rotate(0.0 210.0 303.5) scale(0.6690177863157191 0.6689619297843452)"><svg width="627.786" height="907.376" viewBox="0 0 627.786 907.376"><path d="M623.5 907.376c1.912-22.5-13.187-41.5-34.6-48.65-12.209-4.078-36.045-12.988-47.52-18.82-13.557-6.89-37.845-22.719-44.121-42.873l-122.385-16.37-.094 126.713m-82.011-.27-.195-107.593L158.5 816.287c-6.816 20.125-18.182 37.9-30.975 42.4s-22.978 12.539-28.92 22.933c-5.725 8.96-5.725 16.96-5.725 24.96l199.885.527z" fill="#004E92"/><path d="M224.415 464.5a3 3 0 0 1-1.662-5.5l4.1-2.718a56.854 56.854 0 0 0 25.183-41.6 3 3 0 1 1 5.964.618 62.84 62.84 0 0 1-27.834 45.979l-4.1 2.718a3 3 0 0 1-1.651.503z" fill="#222433"/><path d="M532.452 477.547a59.781 59.781 0 0 0-18.613-34.031l-.01-.01-137.839-126.07a80.333 80.333 0 0 0-54.851-21.536H293l-84.115-.317-22.115.317a80.635 80.635 0 0 0-61.04 27.94l.213-.24L17.009 458.566c-1.883 2.359-8.466 14.715-8.466 14.715C-10.185 513.424 21 558.944 65.2 555.976c4.2-.09 15.684-1.4 19.684-5.4" fill="#fff"/><path d="M61.159 559.112a61.221 61.221 0 0 1-55.335-87.1c.022-.048.046-.1.071-.142 1.121-2.1 6.812-12.724 8.769-15.175l108.558-134.5a3.166 3.166 0 0 1 .236-.313 83.635 83.635 0 0 1 63.31-28.985l22.073-.317 84.169.317h28.128a83.345 83.345 0 0 1 56.9 22.337c.041.038.081.077.119.117l137.7 125.942.044.041a62.412 62.412 0 0 1 19.512 35.7 3 3 0 0 1-5.914 1.019 56.461 56.461 0 0 0-17.682-32.328l-.045-.042L373.965 319.65c-.051-.048-.1-.1-.149-.146a77.363 77.363 0 0 0-52.678-20.604H293l-84.127-.317-22.061.316a77.649 77.649 0 0 0-58.52 26.571l-.014.018L19.343 460.45c-1.229 1.54-5.613 9.479-8.115 14.171A55.213 55.213 0 0 0 65 552.982c.046 0 .091 0 .137-.006 5.474-.117 14.9-1.793 17.627-4.518a3 3 0 1 1 4.242 4.242c-5.542 5.542-20.324 6.223-21.647 6.272q-2.11.14-4.2.14z" fill="#222433"/><path d="M371.547 484.079a2.988 2.988 0 0 1-1.7-.527c-44.651-30.633-48.307-43.965-39.431-57.852a3 3 0 1 1 5.055 3.232c-4.7 7.359-10.557 16.518 37.771 49.672a3 3 0 0 1-1.7 5.475z" fill="#222433"/><path d="M322.925 129.1a29.552 29.552 0 1 1-3.763 46.312A70.595 70.595 0 0 1 293 254.907v41.709a38.893 38.893 0 0 1-8.917 24.839l-48.747 9.5a39.042 39.042 0 0 1-20.436-34.339V257.38a70.584 70.584 0 0 1-30.6-79.55 29.542 29.542 0 1 1-3.032-50.088l5.62-48.163 134-3z" fill="#fff"/><path d="M235.335 333.953a3.005 3.005 0 0 1-1.432-.364 42.049 42.049 0 0 1-22-36.973v-37.59a73.6 73.6 0 0 1-32.103-75.274 32.551 32.551 0 1 1-1.042-60.447l5.142-44.074a3 3 0 0 1 2.912-2.651l134-3a2.994 2.994 0 0 1 3.065 2.882l1.853 47.654a32.55 32.55 0 1 1-1.565 58.475A73.611 73.611 0 0 1 296 256.433v40.183a42.124 42.124 0 0 1-9.6 26.749 3 3 0 0 1-1.74 1.035l-48.747 9.5a3 3 0 0 1-.578.053zM184.3 174.83a3 3 0 0 1 2.882 3.833 67.589 67.589 0 0 0 29.305 76.169 3 3 0 0 1 1.416 2.548v39.236a36.05 36.05 0 0 0 17.941 31.184l46.584-9.076A36.118 36.118 0 0 0 290 296.616v-41.709a3 3 0 0 1 1.259-2.443 67.593 67.593 0 0 0 25.053-76.118 3 3 0 0 1 4.89-3.136 26.548 26.548 0 1 0 3.383-41.611 3 3 0 0 1-4.656-2.383L318 79.644 189.561 82.52l-5.317 45.57a3 3 0 0 1-4.41 2.289 26.556 26.556 0 1 0 2.723 45.006 3 3 0 0 1 1.743-.555z" fill="#222433"/><path d="M246.889 186.077a3 3 0 0 1-1.094-5.794l15.726-6.156-11.632-35.343a3 3 0 1 1 5.7-1.876l12.52 38.04a3 3 0 0 1-1.756 3.732l-18.37 7.19a3 3 0 0 1-1.094.207z" fill="#222433"/><circle cx="220.094" cy="138.626" fill="#fff" r="23.388"/><path d="M220.094 165.014a26.388 26.388 0 1 1 26.388-26.388 26.419 26.419 0 0 1-26.388 26.388zm0-46.776a20.388 20.388 0 1 0 20.388 20.388 20.411 20.411 0 0 0-20.388-20.388z" fill="#222433"/><circle cx="286.343" cy="138.626" fill="#fff" r="23.388"/><path d="M286.344 165.014a26.388 26.388 0 1 1 26.388-26.388 26.419 26.419 0 0 1-26.388 26.388zm0-46.776a20.388 20.388 0 1 0 20.388 20.388 20.411 20.411 0 0 0-20.388-20.388z" fill="#222433"/><path d="M261.779 139.6h-17.11a3 3 0 1 1 0-6h17.11a3 3 0 0 1 0 6z" fill="#222433"/><path d="M337.405 335.888c1.5.659 2.879 1.313 4.134 1.958 19.35 10 30.64 16.49 34.9 19l8.02 5.78a46.3 46.3 0 0 1 .49 74.91c-11.65 8.9-29.55 8.64-39.36-.06-10.093-8.939-17.818-22.718-31.187-29.366l-73.22-72.218c-4.318-2.171-6.307-4.807-5.713-8.716 1.646-10.865 27.286-10.186 53.826-5.189" fill="#fff"/><path d="M364.757 447.155c-7.881 0-15.571-2.479-21.159-7.434a118.773 118.773 0 0 1-10.543-11.157c-5.865-6.765-11.93-13.76-19.989-17.768a2.99 2.99 0 0 1-.77-.55l-72.888-71.89c-2.418-1.244-7.987-4.508-6.905-11.631a10.1 10.1 0 0 1 4.421-6.858c10.458-7.423 37.649-3.705 52.926-.828a3 3 0 0 1-1.11 5.9c-24.046-4.526-42.118-4.593-48.344-.175a4.132 4.132 0 0 0-1.961 2.865c-.252 1.659-.144 3.456 4.094 5.587a2.978 2.978 0 0 1 .759.544l72.886 71.888c8.905 4.56 15.263 11.894 21.414 18.989a112.465 112.465 0 0 0 9.989 10.6c8.893 7.887 25.171 7.85 35.55-.078a43.3 43.3 0 0 0-.416-70.088l-7.914-5.7c-4.082-2.4-15.4-8.909-34.636-18.85a75.857 75.857 0 0 0-3.966-1.877 3 3 0 0 1 2.419-5.492 81.22 81.22 0 0 1 4.3 2.036c19.563 10.11 31.03 16.714 35.052 19.084a2.613 2.613 0 0 1 .231.151l8.019 5.779a49.3 49.3 0 0 1 .516 79.759 36.436 36.436 0 0 1-21.975 7.194z" fill="#222433"/><path d="M194.129 362.626a46.3 46.3 0 0 0-.5 74.91c11.66 8.9 29.55 8.64 39.37-.06 15.13-13.4 24.94-37.68 56.42-32.5 14.2 2.33 35.109 8 36.84-5.5 1.21-9.35-23-17-40.6-23.27 26.8-2.45 61.88-5.7 61.48-17.87s-26.11-12.16-60.8-8.73c37.38-10.44 58.55-10.78 56.78-22.43-2.91-19.2-80.74-2.35-106.07 10.67-19.35 10-30.641 16.49-34.91 19z" fill="#fff"/><path d="M213.839 447.146a36.549 36.549 0 0 1-22.031-7.225 49.3 49.3 0 0 1 .565-79.728l8.01-5.78a3.38 3.38 0 0 1 .235-.153c5.063-2.976 16.35-9.413 35.053-19.079 21.805-11.208 85.055-26.2 104.085-16.463 4.583 2.344 5.971 5.649 6.329 8.008 1.567 10.319-9.114 13.631-27.286 17.922 14.556.018 23.121 1.947 27.648 5.915a10.326 10.326 0 0 1 3.69 7.674c.4 12.174-20.927 16.514-50.771 19.652 16.463 5.992 31.088 12.542 29.868 21.972a11.611 11.611 0 0 1-4.653 8.259c-6.863 5.022-19.36 2.75-30.385.744-1.82-.331-3.589-.653-5.264-.928-22.332-3.673-32.565 8.131-43.4 20.628a118.667 118.667 0 0 1-10.545 11.158c-5.587 4.946-13.269 7.424-21.148 7.424zm-10.059-87.785-7.9 5.7-.008.006a43.3 43.3 0 0 0-.467 70.057c10.421 7.954 26.705 7.99 35.6.109a112.206 112.206 0 0 0 9.989-10.6c10.907-12.579 23.265-26.84 48.908-22.617 1.7.28 3.508.607 5.363.945 9.349 1.7 20.986 3.817 25.768.317a5.7 5.7 0 0 0 2.246-4.183c.14-1.082-.526-4.1-9.7-8.784-6.884-3.516-16.24-6.808-24.5-9.712-1.51-.532-2.994-1.054-4.434-1.567a3 3 0 0 1 .734-5.813c12.742-1.165 28.6-2.616 40.571-5.234 15.979-3.5 18.251-7.484 18.183-9.551a4.426 4.426 0 0 0-1.648-3.359c-7.358-6.45-35.4-4.506-55.858-2.484a3 3 0 0 1-1.1-5.875c10.359-2.893 19.3-4.972 27.185-6.807 19.625-4.566 28.266-6.815 27.436-12.283-.139-.915-.615-2.279-3.13-3.566-15.7-8.029-75.928 4.8-98.6 16.454-18.418 9.522-29.571 15.871-34.638 18.847z" fill="#222433"/><path d="m282.3 482.8 255.72-5.375c54.865.153 100.865 68.153 82.761 125.2l-88.7 199.059-173.29-23.16 29.76-107.72-133.665.773" fill="#fff"/><path d="M532.08 804.686a3.169 3.169 0 0 1-.4-.026L358.391 781.5a3 3 0 0 1-2.494-3.772l28.7-103.9-129.7.75h-.018a3 3 0 0 1-.016-6l133.664-.773a3.07 3.07 0 0 1 2.4 1.176 3 3 0 0 1 .51 2.623L362.6 776.008l167.656 22.407 87.715-196.855c8.624-27.374 2.543-59.1-16.282-84.9-16.754-22.961-39.964-36.168-63.679-36.234L282.362 485.8a3 3 0 0 1-.126-6l255.719-5.376c25.718.071 50.689 14.176 68.581 38.7 19.984 27.388 26.377 61.187 17.1 90.411a3.119 3.119 0 0 1-.119.314l-88.7 199.059a3 3 0 0 1-2.737 1.778z" fill="#222433"/><path d="m278.489 594.836 34.94 201.06-188.529 24.81-46.37-260.7a95 95 0 0 1 126.53-105.69l112.719 41.569" fill="#fff"/><path d="M124.9 823.706a3 3 0 0 1-2.95-2.475l-46.37-260.7A98 98 0 0 1 206.1 451.5l112.716 41.569a3 3 0 1 1-2.076 5.629l-112.72-41.567a92 92 0 0 0-122.538 102.35l45.868 257.876 182.588-24.028-34.4-197.979a3 3 0 1 1 5.911-1.028l34.94 201.06a3 3 0 0 1-2.564 3.488L125.29 823.68a2.922 2.922 0 0 1-.39.026zm-37.869-402.78a3 3 0 0 1-1.409-5.65l115.11-61.08a3 3 0 0 1 2.813 5.3l-115.11 61.08a3 3 0 0 1-1.404.35zm345.791-18.805a2.992 2.992 0 0 1-1.8-.6l-46.09-34.75a3 3 0 0 1 3.612-4.792l46.091 34.75a3 3 0 0 1-1.809 5.4z" fill="#222433"/><path d="M321.425 58.045a48.991 48.991 0 0 0-91.9-31.085 45.632 45.632 0 0 0-55.856 44.43c0 1.248.051 2.5.151 3.72a45.282 45.282 0 0 0-7.631 25.27c0 14.337 6.542 24.555 17.969 33.28l.6.45a3 3 0 0 0 4.8-2.4c.019-13.5.075-31.043.149-32.587.032-.362.091-.732.152-1.082a19.336 19.336 0 0 1 22.441-15.56l22 4a97.577 97.577 0 0 0 9.884 1.288c2.389.2 4.859.311 7.3.32.594.011 1.188.011 1.77 0a96.716 96.716 0 0 0 6.647-.288 96.622 96.622 0 0 0 9.859-1.229l24.286-4.31a19.194 19.194 0 0 1 11.138 1.362 19.294 19.294 0 0 1 11.5 17.649l-.33 30.361a3 3 0 0 0 4.781 2.448l1.308-.966c11.319-8.713 17.811-23.891 17.811-38.157a45.5 45.5 0 0 0-18.829-36.914z" fill="#004E92"/><g fill="#222433"><path d="M162.6 165.907a3 3 0 0 1-1.323-5.694l11.723-5.75-20.211-5.5a3 3 0 0 1 1.577-5.789l27.879 7.59a3 3 0 0 1 .534 5.588l-18.861 9.25a2.992 2.992 0 0 1-1.318.305zm179.834 0a2.992 2.992 0 0 1-1.318-.307l-18.86-9.25a3 3 0 0 1 .532-5.588l27.88-7.59a3 3 0 1 1 1.576 5.789l-20.21 5.5 11.724 5.75a3 3 0 0 1-1.324 5.694zm44.634 513.101a3 3 0 0 1-2.845-3.954l18.28-54.6a3 3 0 1 1 5.689 1.905l-18.28 54.6a3 3 0 0 1-2.844 2.049z"/><circle cx="220.094" cy="138.626" r="7.48"/><circle cx="286.343" cy="138.626" r="7.48"/></g><path d="M280.149 199.526c-8.93 43.19-53.51 29.54-52.36 0z" fill="#fff"/><path d="M253.359 230.023a25.422 25.422 0 0 1-3.086-.187 29.483 29.483 0 0 1-25.482-30.427 3 3 0 0 1 3-2.883h52.361a3 3 0 0 1 2.938 3.607c-4.6 22.233-18.246 29.89-29.731 29.89zm-22.52-27.5A23.456 23.456 0 0 0 251 223.88c9.309 1.137 20.531-4 25.343-21.354z" fill="#222433"/><path d="M300.453 201.79a3 3 0 0 1-2.72 1.75h-87.38a3 3 0 0 1-2.29-4.94c.78-.92 1.65-1.87 2.59-2.81a50.492 50.492 0 0 1 35.48-14.71h15.82A50.056 50.056 0 0 1 300 198.58a2.993 2.993 0 0 1 .453 3.21z" fill="#004E92"/></svg></g><g transform="translate(131.0 112.0) rotate(0.0 173.0 279.0) translate(0.0 0.0) scale(0.669522781189893 0.667278936945728)"><svg width="515.292" height="830.238" viewBox="0 0 515.292 830.238"><path d="M476.805 784.387c-7-1.142-28.206-9.082-30.706-63.248h-119v112l11.612.004 174.906.089c1.732-20.26-9.963-38.971-28.286-46.566-2.726-1.13-5.613-1.804-8.526-2.279z" fill="#fff"/><path d="M513.617 836.232h-.001l-186.518-.093a3 3 0 0 1-2.999-3v-112a3 3 0 0 1 3-3h119a3 3 0 0 1 2.997 2.862c2.409 52.194 22.188 59.446 28.193 60.425 3.643.595 6.563 1.379 9.191 2.469 19.852 8.229 31.958 28.158 30.126 49.593a3 3 0 0 1-2.989 2.744zm-183.518-6.092 180.678.091c.406-17.757-10.018-33.922-26.594-40.793-2.189-.908-4.687-1.572-7.86-2.09-8.979-1.465-29.922-10.589-33.069-63.209H330.099z" fill="#222433"/><path d="M22.917 494.191c-13.852-12.938-21.366-32.214-18.474-52.4l8.57-59.81a59.998 59.998 0 0 1 25.8-41.203l135.283-90.667c5.945-4.354 12.349-8.08 21.003-10.973l79.449-.107c19.008 7.558 33.28 20.853 43.094 36.312l-.004.003 80.309 113.576" fill="#fff"/><path d="M22.917 497.191a2.99 2.99 0 0 1-2.047-.808c-15.065-14.07-22.316-34.638-19.396-55.018l8.57-59.809c2.517-17.562 12.391-33.33 27.09-43.264l135.241-90.639c7.106-5.199 13.824-8.704 21.773-11.36a3.02 3.02 0 0 1 .947-.155l79.449-.107h.004c.379 0 .756.072 1.108.212 18.13 7.209 33.524 20.173 44.518 37.492l.015.024 80.207 113.431a3 3 0 1 1-4.9 3.464l-80.31-113.576a2.94 2.94 0 0 1-.173-.275c-10.198-16.001-24.377-28.011-41.045-34.771l-78.376.105c-7.156 2.439-13.259 5.657-19.724 10.393a2.38 2.38 0 0 1-.103.072L40.484 343.271c-13.291 8.981-22.224 23.248-24.501 39.137l-8.57 59.809c-2.643 18.439 3.919 37.049 17.552 49.782a3 3 0 0 1-2.048 5.192z" fill="#222433"/><path d="M167.547 398.124c-6.806 0-11.114-2.003-12.736-7.724-.648-2.305-.745-5.89 2.469-9.918 13.341-16.72 77.105-29.134 101.568-27.896 23.933 1.211 36.561 2.616 39.861 3.018.069.008.138.019.207.033l9.73 1.88a49.308 49.308 0 0 1 37.466 33.802 3 3 0 1 1-5.732 1.774 43.305 43.305 0 0 0-32.892-29.689l-9.607-1.857c-3.404-.412-15.843-1.78-39.336-2.969-25.432-1.283-85.571 11.854-96.575 25.646-1.765 2.212-1.636 3.653-1.385 4.545 1.505 5.305 10.302 3.791 30.055-.141 7.949-1.582 16.959-3.375 27.602-5.012a3.006 3.006 0 0 1 3.421 2.509 3 3 0 0 1-2.509 3.421c-10.513 1.617-19.454 3.396-27.342 4.966-10.014 1.994-18.148 3.612-24.265 3.612z" fill="#222433"/><path d="m169.692 721.732-.075 111.49h161.44c1.43-18.76-3.23-34.32-16.17-42.32a30.74 30.74 0 0 1-13.63-20.11c-2.01-9.862-4.82-25.354-8.427-49.06" fill="#fff"/><path d="M331.057 836.222h-161.44a2.999 2.999 0 0 1-3-3.002l.075-111.49a3 3 0 0 1 3-2.998h.002a3 3 0 0 1 2.998 3.002l-.073 108.488h155.612c.55-12.844-1.854-28.688-14.922-36.768-7.809-4.994-13.262-13.039-14.999-22.097-2.524-12.385-5.368-28.941-8.447-49.173a3 3 0 1 1 5.932-.902c3.063 20.134 5.89 36.59 8.401 48.912 1.435 7.482 5.918 14.097 12.307 18.182 13.095 8.095 19.175 23.69 17.545 45.075a3 3 0 0 1-2.991 2.771z" fill="#222433"/><path d="M476.776 479.531a97.01 97.01 0 0 0-7.458-37.365c-20.622-49.648-77.791-73.268-127.44-52.643l-108.22 44.939a2.499 2.499 0 0 0-1.35 3.268l49.499 119.05.05 165.012a2.501 2.501 0 0 0 2.501 2.499l190-.061a2.497 2.497 0 0 0 2.499-2.501z" fill="#004E92"/><path d="M329.377 479.532c.001-20.809-6.834-41.465-19.247-58.165-32.044-43.115-93.17-52.146-136.313-20.167l-71.773 42.907s3.456 32.818 3.199 43.792c-.279 11.914-21.144 44.239-21.144 44.239.55 9.91 2 33 16 50 8.481 10.299 18.133 18.033 18.518 18.033h15.84v121.62a2.501 2.501 0 0 0 2.501 2.5l190-.061a2.497 2.497 0 0 0 2.499-2.501z" fill="#004E92"/><path d="M276.529 222.122h47.448l-.295-74.408v-54C323.682 43.614 282.45 3 231.587 3s-92.095 44.784-92.095 94.884v124.301l56.066-.063" fill="#fff"/><path d="M139.492 225.185a2.998 2.998 0 0 1-3-3V97.884C136.492 44.825 180.04 0 231.587 0c52.436 0 95.095 42.04 95.095 93.714v54l.294 74.396a3.004 3.004 0 0 1-3 3.012h-47.448a3 3 0 1 1 0-6h44.436l-.283-71.396V93.714C320.682 45.348 280.715 6 231.587 6c-48.294 0-89.095 42.078-89.095 91.884v121.298l53.063-.06h.003a3 3 0 0 1 .003 6l-56.066.063h-.003z" fill="#222433"/><path d="M310.787 90.742c16.32 0 29.55 13.23 29.55 29.55s-13.23 29.55-29.55 29.55" fill="#fff"/><path d="M310.787 152.842a3 3 0 1 1 0-6c14.64 0 26.55-11.911 26.55-26.55s-11.91-26.55-26.55-26.55a3 3 0 1 1 0-6c17.948 0 32.55 14.602 32.55 32.55s-14.602 32.55-32.55 32.55z" fill="#222433"/><path d="M158.747 149.842c-16.32 0-29.55-13.23-29.55-29.55s13.23-29.55 29.55-29.55" fill="#fff"/><path d="M158.747 152.842c-17.948 0-32.55-14.602-32.55-32.55s14.602-32.55 32.55-32.55a3 3 0 1 1 0 6c-14.64 0-26.55 11.91-26.55 26.55s11.91 26.55 26.55 26.55a3 3 0 1 1 0 6z" fill="#222433"/><path d="M176.447 187.983c3.687 5.938 13.914 14.515 20 16.613v38.056c0 21.567 17.483 39.05 39.05 39.05s39.05-17.483 39.05-39.05v-40.529c6.37-2.429 17.587-12.986 20.08-19.839" fill="#fff"/><path d="M235.497 284.702c-23.187 0-42.05-18.863-42.05-42.05v-36.059c-6.619-3.155-15.861-11.088-19.549-17.028a3 3 0 0 1 5.097-3.165c3.392 5.462 13.037 13.501 18.429 15.36a3 3 0 0 1 2.022 2.836v38.056c0 19.878 16.172 36.05 36.05 36.05s36.05-16.172 36.05-36.05v-40.529c0-1.245.768-2.36 1.931-2.803 5.515-2.103 16.116-11.978 18.329-18.061a3 3 0 1 1 5.639 2.051c-2.589 7.119-12.855 17.041-19.899 20.733v38.609c.001 23.187-18.863 42.05-42.049 42.05z" fill="#222433"/><path d="M247.687 161.012c0 9.05-5.45 16.38-12.18 16.38s-12.19-7.33-12.19-16.38a20.808 20.808 0 0 1 1.52-7.92c2.08-5.05 6.08-8.46 10.67-8.46s8.59 3.41 10.66 8.46a20.824 20.824 0 0 1 1.52 7.92z" fill="#fff"/><g fill="#222433"><path d="M235.507 180.392c-8.376 0-15.19-8.694-15.19-19.38a23.692 23.692 0 0 1 1.739-9.045c2.628-6.381 7.78-10.334 13.451-10.334 5.678 0 10.826 3.955 13.436 10.322a23.705 23.705 0 0 1 1.744 9.067c-.005 10.681-6.812 19.37-15.18 19.37zm0-32.76c-3.193 0-6.219 2.53-7.896 6.603a17.708 17.708 0 0 0-1.294 6.762c0 7.268 4.208 13.396 9.19 13.396 4.976 0 9.18-6.127 9.18-13.38v-.016a17.709 17.709 0 0 0-1.301-6.778c-1.663-4.059-4.684-6.587-7.879-6.587z"/><path d="M246.167 154.092h-21.33c2.08-5.05 6.08-8.46 10.67-8.46s8.59 3.41 10.66 8.46z"/><circle cx="202.897" cy="105.182" r="7.48"/><circle cx="267.077" cy="105.182" r="7.48"/><path d="M229.778 134.343a3 3 0 0 1-1.1-5.793l14.005-5.514-10.139-22.397a2.999 2.999 0 1 1 5.466-2.474l11.44 25.27a3 3 0 0 1-1.634 4.029l-16.94 6.67a2.995 2.995 0 0 1-1.098.209zm51.463-52.281c-.148 0-.299-.011-.45-.034l-22.14-3.33a3.001 3.001 0 0 1 .892-5.934l22.14 3.33a3.001 3.001 0 0 1-.442 5.968zm-91.478 0a3 3 0 0 1-.442-5.967l22.14-3.33a3 3 0 1 1 .892 5.934l-22.14 3.33a3.128 3.128 0 0 1-.45.033zm137.195 725.67a3 3 0 0 1-3.001-2.999l-.08-325.201c-.008-25.622-10.819-50.274-29.663-67.634a3 3 0 0 1 4.065-4.413c20.072 18.493 31.589 44.752 31.597 72.045l.08 325.2a3 3 0 0 1-2.998 3.002z"/></g><path d="M33.937 421.142a42.001 42.001 0 0 0-13.19 44.29c6.46 20.32 7.86 19.16-2.67 37.6-7.52 13.2-22.72 30.42-10.46 37.86 8.51 5.15 26.21-14.89 39.78-29.2-9.08 26.88-22.77 55.45-10.86 60.26s24.7-13.34 36.22-48.25c-5.91 40.5-14.62 61-2.64 64.32 19.76 5.4 36.76-76.84 35-106.82-1.33-22.9.84-22.57-3.76-46.24-5.58-28.93-50.49-27.93-67.42-13.82z" fill="#fff"/><path d="M71.963 591.27c-.993 0-1.881-.148-2.637-.354-8.15-2.259-8.188-10.635-8.2-13.387-.027-6.137 1.597-14.644 3.654-25.415l.095-.498c-6.044 12.188-12.248 19.798-18.545 22.718-3.678 1.705-7.351 1.84-10.917.4-12.327-4.979-4.915-25.221 3.668-48.66l.735-2.009c-12.766 13.271-25.27 24.525-33.752 19.393-3.09-1.875-5.022-4.418-5.747-7.563-1.79-7.77 4.333-17.27 10.253-26.457 1.791-2.779 3.482-5.403 4.9-7.892 8.85-15.498 8.85-15.498 4.156-29.838-.527-1.611-1.109-3.388-1.738-5.369-5.216-17.283.331-35.91 14.119-47.496a.065.065 0 0 0 .009-.008c11.914-9.929 34.979-13.235 51.417-7.371 11.555 4.124 18.772 12.052 20.87 22.928 3.12 16.055 3.177 21.262 3.271 29.889.045 4.096.1 9.194.539 16.746 1.512 25.757-11 93.044-28.498 107.232-2.853 2.314-5.499 3.011-7.652 3.011zm.793-70.569a3 3 0 0 1 2.97 3.434c-1.638 11.221-3.452 20.722-5.052 29.104-4.002 20.958-5.528 30.292.245 31.892.552.151 2.266.62 4.917-1.531 14.493-11.751 27.863-75.373 26.287-102.222-.447-7.694-.503-12.871-.549-17.03-.09-8.287-.145-13.289-3.162-28.813-2.115-10.965-10.41-16.067-16.996-18.417-14.406-5.14-35.265-2.245-45.552 6.324a38.96 38.96 0 0 0-12.245 41.124c.611 1.92 1.187 3.681 1.71 5.278 5.132 15.68 5.286 17.283-4.647 34.677-1.497 2.628-3.232 5.32-5.068 8.169-5.001 7.761-10.671 16.558-9.449 21.859.356 1.549 1.313 2.75 3.009 3.779 5.75 3.482 22.625-14.448 32.708-25.16 1.135-1.206 2.25-2.391 3.339-3.539a3 3 0 0 1 5.019 3.024c-1.747 5.171-3.667 10.414-5.523 15.485-6.562 17.919-13.998 38.229-7.055 41.033 1.994.805 4.004.713 6.146-.28 4.797-2.224 14.567-11.174 26.102-46.128a2.997 2.997 0 0 1 2.846-2.062zm64.161 79.971a3 3 0 0 1-3-3v-40.33a3 3 0 1 1 6 0v40.33a3 3 0 0 1-3 3zm188.648-472.371c-.06 0-.119-.001-.179-.005l-17.205-1.009a3 3 0 0 1-1.894-5.166l13.51-12.88a2.999 2.999 0 1 1 4.139 4.343l-8.515 8.118 10.315.605a3 3 0 0 1-.171 5.994zm-177.163 3.958a3 3 0 0 1-.942-5.849l8.863-2.932-10.268-6.536a3 3 0 1 1 3.222-5.062l15.6 9.93a2.998 2.998 0 0 1-.669 5.379l-14.864 4.917a2.972 2.972 0 0 1-.942.153zm28.045 91.463a3 3 0 0 1-3-3v-146c-.06-9.905 10.467-12.708 22.655-15.953 12.696-3.38 28.497-7.587 36.91-20.872a3 3 0 0 1 5.236.299c7.584 15.68 24.43 19.409 37.966 22.404 11.49 2.543 21.414 4.739 21.414 13.962v144a3 3 0 1 1-6 0v-144c0-4.193-6.35-5.811-16.71-8.104-12.864-2.847-30.091-6.659-39.68-21.405-9.932 12.15-25.144 16.2-37.59 19.515-11.303 3.009-18.229 5.109-18.199 10.137v146.018a3.003 3.003 0 0 1-3.002 2.999z" fill="#222433"/></svg></g><g transform="translate(760.0 114.0) rotate(0.0 219.5 278.0) scale(0.6730434595966952 0.6730745950657337)"><svg width="652.261" height="826.06" viewBox="0 0 652.261 826.06"><path d="m21.661 396.62 86.117-115.02a72.275 72.275 0 0 1 57.256-28.157l25.742-.533v-2c6.235 12.252 17 21 35.653 20.885 14.329-.087 30.347-6.885 34.347-19.885v2s84.971 2.311 89 3l49 4-26 92-140 74-211-30" fill="#fff"/><path d="M232.773 429.907a3.008 3.008 0 0 1-.423-.03l-211-30a3.282 3.282 0 0 1-2.09-5.055l86.019-114.889c.037-.057.077-.112.119-.166a75.275 75.275 0 0 1 59.629-29.327l22.893-.475a3 3 0 0 1 5.523-.419c6.638 13.047 17.45 19.354 32.961 19.246 12.96-.079 27.94-6.208 31.5-17.767a3 3 0 0 1 5.722-.041c16.078.442 81.055 2.261 86.465 2.939l48.924 3.994a3 3 0 0 1 2.642 3.806l-26 92a3 3 0 0 1-1.484 1.836l-140 74a3 3 0 0 1-1.4.348zm-205.858-35.3L232.231 423.8l138-72.945 24.663-87.255-45.365-3.7a2.885 2.885 0 0 1-.262-.033c-3.148-.483-53.476-2-87.337-2.924-6.357 12.123-22.233 17.771-35.485 17.852-16.272.105-28.472-6.244-36.294-18.872l-25.058.519a69.9 69.9 0 0 0-11.752.993 69.07 69.07 0 0 0-43.093 25.865l-.069.1z" fill="#004E92"/><path d="M144.7 717.777c-2.451 20.013-7.656 38.262-17.819 46.443-19.64 15.83-19 39.86-17.4 61.84h83.94l66.65-60.67-.134-68.136z" fill="#6EC1E4"/><path d="M463.918 137.039c-7.907 12.421-15.592 24.374-16.567 26.021l-72.78 122.75-1.17 1.97a48.671 48.671 0 0 0 1.134 50.893l4.047 5.306a174.893 174.893 0 0 0 80.588-30.642l15.26-15.315 39.376-92.279A39.128 39.128 0 0 0 524.451 189c5.81-19 3.68-34.24 32.78-46.09 13.13-5.35 33.61-11.33 28.13-23.57-3.8-8.47-28-2.46-46.08 1.33 21.25-15.84 49-36.61 42.45-46.63s-28.18 3.22-55.57 23.94c26-28 43.65-39.17 36.17-48-8.211-9.757-36.124 11.057-58.159 33.123" fill="#fff"/><path d="M378.581 346.979a3 3 0 0 1-2.381-1.179l-4.047-5.306a2.21 2.21 0 0 1-.138-.2 51.679 51.679 0 0 1-1.2-54.027l1.182-1.991L444.77 161.53c.63-1.063 3.745-5.939 8.057-12.687 2.584-4.044 5.556-8.7 8.56-13.415a3 3 0 0 1 5.062 3.223c-3.006 4.722-5.98 9.376-8.566 13.423-4.119 6.446-7.372 11.537-7.951 12.514L375.98 289.312a45.679 45.679 0 0 0 1.014 47.638l2.934 3.846a172.418 172.418 0 0 0 77.3-29.764l14.672-14.719 39.15-91.747a3 3 0 0 1 .717-1.021 36.259 36.259 0 0 0 9.831-15.461c1.007-3.3 1.783-6.545 2.535-9.688 3.587-15.007 6.684-27.968 31.969-38.265 1.585-.645 3.278-1.3 5.018-1.975 8.712-3.374 19.555-7.573 21.767-12.951a5.579 5.579 0 0 0-.262-4.639c-.433-.966-2.528-3.133-12.577-2.362-7.566.581-17.117 2.622-25.543 4.424-1.567.335-3.107.664-4.6.978a3 3 0 0 1-2.409-5.341c10.081-7.515 22.626-16.866 31.365-25.256 8.471-8.133 12.249-14.448 10.367-17.327a4.273 4.273 0 0 0-3.05-1.946c-9.471-1.65-32.043 14.414-48.2 26.637a3 3 0 0 1-4.008-4.434c7.257-7.815 13.73-14.193 19.442-19.82 13.664-13.468 20.088-20.119 16.63-24.2a4.124 4.124 0 0 0-3.294-1.4c-9.083-.392-29.338 13.562-50.453 34.706a3 3 0 0 1-4.246-4.24c8.719-8.731 38.432-37.151 54.955-36.461a10.209 10.209 0 0 1 7.622 3.526c6.621 7.816-.558 16.037-13.5 28.879 12.126-7.37 20.257-10.114 26.07-9.1a10.163 10.163 0 0 1 7.045 4.574c6.567 10.046-9.038 24.627-32.409 42.559 16.851-3.408 32.432-5.388 36.265 3.154a11.494 11.494 0 0 1 .335 9.375c-3.192 7.761-14.857 12.278-25.149 16.264-1.707.661-3.366 1.3-4.921 1.937-22.43 9.134-24.933 19.607-28.4 34.1-.772 3.232-1.571 6.574-2.645 10.086a42.316 42.316 0 0 1-11 17.619l-39.131 91.7a2.99 2.99 0 0 1-.635.94L461.3 315.454a3.014 3.014 0 0 1-.4.338 178.4 178.4 0 0 1-81.97 31.167 3.048 3.048 0 0 1-.349.02z" fill="#004E92"/><path d="M483.95 172.467c9.551-12.856 8.977-30.642 13.884-48.168 6.783-24.275 8.878-40.417 4.667-44.646-9.669-9.624-20.072 28.526-38.583 57.386" fill="#fff"/><path d="M483.947 175.467a3 3 0 0 1-2.406-4.789c5.93-7.982 7.746-18.389 9.668-29.407a179.656 179.656 0 0 1 3.736-17.781c9.8-35.06 6.242-40.9 5.43-41.72-.7-.7-1.037-.644-1.145-.625-3.581.609-9.872 13.6-15.422 25.07-4.969 10.265-10.6 21.9-17.364 32.444a3 3 0 0 1-5.051-3.239c6.57-10.243 12.119-21.706 17.015-31.819C486.349 87.2 491.6 76.357 498.224 75.23a7.111 7.111 0 0 1 6.393 2.3c3.423 3.437 6.064 11.942-3.894 47.579a175.012 175.012 0 0 0-3.6 17.2c-2.048 11.74-3.983 22.828-10.762 31.954a3 3 0 0 1-2.414 1.204z" fill="#004E92"/><path d="M578.2 613.718c-7.477 23.484 10.96 51.013 22.3 63.422 7.795 8.533 26.747 22.217 34.42 30.86 8.885 10.008 23.144 32.962 14.85 51.43l-210.997-73.523 23.048-64.457z" fill="#6EC1E4"/><path d="M298.02 91.054a3.033 3.033 0 0 1-.8 2.27 2.982 2.982 0 0 1-2.19.96H156.71a3 3 0 0 1-2.2-.96 2.974 2.974 0 0 1-.8-2.25A67.383 67.383 0 0 1 155.68 79a3 3 0 0 1 2.91-2.25h134.43a3.009 3.009 0 0 1 2.89 2.19 63.846 63.846 0 0 1 2.11 12.114z" fill="#004E92"/><path d="M298.6 43.764v36a3.009 3.009 0 0 1-3 3H175.165a4.031 4.031 0 0 1-.5-.05h-18.53a3 3 0 0 1-3-3v-35.87A43.836 43.836 0 0 1 196.885 0h57.95A43.809 43.809 0 0 1 298.6 43.764z" fill="#004E92"/><path d="M175.161 87.587a3 3 0 0 1-3-3V43.76A43.809 43.809 0 0 1 215.921 0a3 3 0 0 1 0 6 37.8 37.8 0 0 0-37.76 37.76v40.827a3 3 0 0 1-3 3z" fill="#004E92"/><path d="m292.964 113.368.2-22.608h-134l.285 24.746a28.391 28.391 0 1 0-6.359 48.094 70.555 70.555 0 0 0 28.5 52.339s5.663 3.9 8.708 5.529l.482 30.439a39.694 39.694 0 0 0 70 2l-.482-34.351a70.637 70.637 0 0 0 33.9-56.978 28.391 28.391 0 1 0-1.225-49.21" fill="#fff"/><path d="M226.307 276.911h-.575a42.674 42.674 0 0 1-37.64-23.653 3 3 0 0 1-.319-1.3l-.455-28.728c-3.156-1.875-7.234-4.678-7.435-4.817l-.086-.061a73.507 73.507 0 0 1-29.35-50.595 31.393 31.393 0 1 1 5.934-57.846l-.22-19.113a3 3 0 0 1 3-3.035h134a3 3 0 0 1 3 3.026l-.154 17.71a31.39 31.39 0 1 1 .841 58.572 73.6 73.6 0 0 1-33.534 54.137l.458 32.66a2.989 2.989 0 0 1-.4 1.539 42.848 42.848 0 0 1-37.065 21.504zm-32.545-25.751a36.688 36.688 0 0 0 64 1.947l-.47-33.509a3 3 0 0 1 1.44-2.605 67.6 67.6 0 0 0 32.461-54.559 3 3 0 0 1 4.43-2.492 25.391 25.391 0 1 0-1.073-44.027 2.956 2.956 0 0 1-.535.264 3 3 0 0 1-3.515-1.1 2.98 2.98 0 0 1-.534-1.781l.17-19.536H162.2l.25 21.711a3 3 0 0 1-4.883 2.371 25.1 25.1 0 0 0-15.922-5.612 25.39 25.39 0 1 0 10.235 48.626 3 3 0 0 1 4.2 2.558 67.5 67.5 0 0 0 27.246 50.084c.518.356 5.653 3.865 8.382 5.327a3 3 0 0 1 1.582 2.6z" fill="#004E92"/><path d="M326.055 90.924a3.009 3.009 0 0 1-2.99 2.67h-.01l-148.85-.55a2.666 2.666 0 0 1-.79-.09 3.209 3.209 0 0 1-1.04-.49 2.977 2.977 0 0 1-.97-1.24 2.775 2.775 0 0 1-.22-.76 3.1 3.1 0 0 1 .1-1.29 3.272 3.272 0 0 1 .42-.86 3.066 3.066 0 0 1 1.22-1 3.526 3.526 0 0 1 .65-.21c22.65-4.96 53.64-11.76 83.16-11.22 19.65.35 36.57 4.47 52.93 8.46 4.61 1.13 9.38 2.29 14.05 3.32a3.011 3.011 0 0 1 2.34 3.26zM259.957 592.75a3 3 0 0 1-2.942-2.431l-18.53-95.96a3 3 0 0 1 5.892-1.138l18.53 95.96a3 3 0 0 1-2.95 3.569z" fill="#004E92"/><path d="M232.283 413.506 439.971 307.26a85 85 0 0 1 119.44 49.08l66.5 254.21-164.09 10.9-14.42-51.7-6.409-22.976-11.981-42.954-92.928 64.3a138.83 138.83 0 0 1-77.263 23.49l-11.047-.7" fill="#fff"/><path d="M461.819 624.45a3 3 0 0 1-2.888-2.194l-31.678-113.571-89.463 61.906a141.4 141.4 0 0 1-78.97 24.019c-.064 0-.127 0-.191-.006l-11.047-.7a3 3 0 0 1 .381-5.988l10.951.7a135.377 135.377 0 0 0 75.5-22.978l92.886-64.285a3 3 0 0 1 4.6 1.661l32.155 115.281L622.09 607.8l-65.558-250.609a82 82 0 0 0-115.2-47.26L233.649 416.177a3 3 0 1 1-2.732-5.342L438.6 304.589A88 88 0 0 1 562.26 355.4c.02.059.037.118.053.179l66.5 254.21a3 3 0 0 1-2.7 3.752l-164.09 10.9a2.04 2.04 0 0 1-.204.009z" fill="#004E92"/><path d="M428.615 507.193a3 3 0 0 1-1.974-5.26l17.535-15.3a3 3 0 0 1 3.944 4.521l-17.534 15.3a2.99 2.99 0 0 1-1.971.739z" fill="#004E92"/><path d="m181.144 395.391 9.305-7.281a24.885 24.885 0 0 0 16.032-6.18c13.56-12.67 22.36-35.61 50.58-30.72 12.74 2.21 31.48 7.58 33-5.19 1.08-8.84-20.6-16.07-36.4-22 24-2.31 55.48-5.38 55.12-16.88s-23.41-11.5-54.52-8.26c33.52-9.86 52.5-10.18 50.91-21.19-2.61-18.15-72.39-2.23-95.1 10.08-17.35 9.41-27.47 15.59-31.3 18 0 0-12.242 9.4-12.74 9.68l-138 77a53.779 53.779 0 0 0-6.37 4.17 48.667 48.667 0 0 0 45.132 84.57" fill="#fff"/><path d="M51.764 486.583a51.848 51.848 0 0 1-40.775-19.8 51.658 51.658 0 0 1 8.822-72.522 57.166 57.166 0 0 1 6.758-4.428l137.9-76.943c.992-.7 8.116-6.148 12.477-9.5.073-.057.15-.11.229-.16 3.568-2.245 13.775-8.5 31.467-18.1 19.751-10.706 75.4-24.764 93.3-15.772 4.515 2.268 5.866 5.549 6.2 7.9 1.386 9.6-7.752 12.837-23.425 16.778 12.11.138 19.41 1.922 23.456 5.455a10.105 10.105 0 0 1 3.608 7.55c.38 12.132-21.69 16.138-45.029 18.675 14.581 5.629 27.371 11.806 26.289 20.663a11.181 11.181 0 0 1-4.46 8.076c-6.32 4.621-17.473 2.477-27.313.585a260.496 260.496 0 0 0-4.718-.879c-19.785-3.429-28.9 7.658-38.556 19.4a110.048 110.048 0 0 1-9.463 10.56 27.558 27.558 0 0 1-16.975 6.933l-8.561 6.7a3 3 0 1 1-3.7-4.725l9.3-7.281a3 3 0 0 1 1.733-.635 21.826 21.826 0 0 0 14.1-5.379 104.428 104.428 0 0 0 8.92-9.981c9.838-11.963 20.987-25.522 44.215-21.5 1.536.266 3.158.578 4.826.9 8.209 1.578 18.426 3.542 22.64.463a5.178 5.178 0 0 0 2.043-3.95c.706-5.785-18.857-13.04-30.546-17.375-1.338-.5-2.653-.983-3.929-1.462a3 3 0 0 1 .766-5.8c11.406-1.1 25.6-2.464 36.309-4.931 10.486-2.416 16.2-5.565 16.1-8.869a4.16 4.16 0 0 0-1.558-3.219c-6.714-5.864-31.554-4.036-49.653-2.151a3 3 0 0 1-1.147-5.859c9.3-2.734 17.313-4.7 24.387-6.433 17.449-4.276 25.133-6.38 24.4-11.45-.126-.885-.572-2.2-2.959-3.4-14.831-7.452-67.73 4.838-87.742 15.685-17.345 9.408-27.391 15.552-31.013 17.828-12.308 9.451-12.77 9.709-12.993 9.834l-138 77a50.968 50.968 0 0 0-6.014 3.937 45.657 45.657 0 0 0-7.765 64.073 45.8 45.8 0 0 0 50.148 15.258 3 3 0 1 1 1.865 5.7 51.313 51.313 0 0 1-15.964 2.551z" fill="#004E92"/><path d="m241.431 493.84 35.64 200.39L109.7 724 68.121 490.26a85 85 0 0 1 113.25-94.58l71.03 26.174" fill="#fff"/><g fill="#004E92"><path d="M109.7 727a3 3 0 0 1-2.951-2.475l-41.58-233.74a88 88 0 0 1 117.247-97.918l71.024 26.172a3 3 0 1 1-2.074 5.63L180.334 398.5a82 82 0 0 0-109.259 91.24l41.054 230.786L273.592 691.8l-35.115-197.435a3 3 0 1 1 5.908-1.05l35.64 200.39a3 3 0 0 1-2.429 3.479l-167.37 29.77a3.063 3.063 0 0 1-.526.046z"/><circle cx="190.451" cy="128.04" r="7.18"/><circle cx="258.731" cy="127.04" r="7.18"/><path d="M219.562 148.561a3 3 0 0 1-1.095-5.794l14.259-5.583-9.987-15.726a3 3 0 1 1 5.064-3.216l11.94 18.8a3 3 0 0 1-1.439 4.4l-17.649 6.911a3.008 3.008 0 0 1-1.093.208zm-4.274 35.579a3 3 0 0 1-2.46-4.714 37.1 37.1 0 0 1 29.677-15.855 3 3 0 0 1 .112 6 31.085 31.085 0 0 0-24.864 13.284 3 3 0 0 1-2.465 1.285zm26.725-63.45a3 3 0 0 1-1.784-5.414l19.071-14.07a3 3 0 1 1 3.562 4.828l-19.07 14.07a2.983 2.983 0 0 1-1.779.586zm-36.813 0a2.983 2.983 0 0 1-1.779-.586l-19.071-14.07a3 3 0 0 1 3.563-4.828l19.07 14.07a3 3 0 0 1-1.783 5.414z"/></g></svg></g><g transform="translate(1042.0 110.0) rotate(0.0 45.5 64.0) scale(0.7190265486725663 0.7134536171541005)"><svg width="126.56" height="179.409" viewBox="0 0 126.56 179.409"><path d="m83.194 4.313-34.74 71.18c-.45.94-1.36 1.57-2.4 1.67-.1.01-.2.02-.29.02-.94 0-1.82-.44-2.39-1.19l-39.91-52.44a3.01 3.01 0 0 1-.45-2.81c.34-.95 1.13-1.67 2.11-1.91L79.774.093c1.13-.29 2.32.11 3.06 1.02a3 3 0 0 1 .36 3.2z" fill="#6EC1E4"/><g fill="#222433"><path d="M123.562 179.409a2.998 2.998 0 0 1-2.39-1.183l-48.076-63.17a3 3 0 0 1 4.774-3.634l48.076 63.17a3 3 0 0 1-2.384 4.817zM62.413 99.062a2.998 2.998 0 0 1-2.39-1.183L.613 19.816a3 3 0 0 1 4.774-3.634l59.411 78.063a3 3 0 0 1-2.385 4.817z"/></g></svg></g><g transform="translate(892.0 251.0) rotate(0.0 55.0 67.0) scale(0.62563985894665 0.6199886181193986)"><svg width="175.82" height="216.133" viewBox="0 0 175.82 216.133"><path d="M172.334 52.37c0 2.03-.34 3.99-.96 5.82a8.74 8.74 0 0 0-7.29-3.91H11.745c-.45 0-.89.03-1.32.1-.07-.66-.11-1.33-.11-2.01 0-9.41 7.21-17.21 16.58-18.56-.08-.68-.12-1.36-.12-2.06 0-10.36 8.73-18.78 19.46-18.78 2.25 0 4.4.38 6.41 1.07C54.824 5.97 62.415 0 71.455 0c10.73 0 19.46 8.42 19.46 18.78 0 .74-.06 1.46-.15 2.18.21.29.4.58.59.87 3.56-3.71 8.63-6.05 14.28-6.05 5.24 0 9.99 2.02 13.5 5.28 3.12-2.06 6.89-3.26 10.95-3.26 9.79 0 17.89 7.02 19.24 16.11 1.15-.2 2.33-.32 3.55-.32 10.729 0 19.459 8.42 19.459 18.78z" fill="#6EC1E4"/><path d="M16.779 91.36c2.719-1.474 6.138-3.012 10.026-4.544l-14.455.011.471 6.694c1.28-.703 2.589-1.419 3.958-2.161z" fill="#fff"/><path d="M12.821 96.52a3 3 0 0 1-2.993-2.79l-.471-6.694a2.997 2.997 0 0 1 2.99-3.21l14.455-.011h.002a3 3 0 0 1 1.099 5.791c-3.881 1.53-7.144 3.007-9.696 4.391-1.364.74-2.669 1.453-3.945 2.153-.448.247-.944.37-1.441.37z" fill="#222433"/><path d="M116.319 86.749c-.999 7.144-9.716 10.061-23.467 13.519 12.108.139 19.413 1.922 23.457 5.454 2.301 2.009 3.515 4.55 3.608 7.551.381 12.131-21.69 16.137-45.029 18.674 14.58 5.63 27.371 11.808 26.289 20.664-.416 3.497-1.917 6.217-4.459 8.075-6.321 4.622-17.477 2.477-27.313.585-1.631-.313-3.217-.619-4.718-.879-19.788-3.429-28.903 7.659-38.556 19.397-2.156 2.622-4.367 5.306-6.693 7.779l1.766 25.092 124.707.472h10l9.505-126.42z" fill="#fff"/><path d="M155.912 216.133h-10l-124.719-.473a2.999 2.999 0 0 1-2.98-2.79l-1.766-25.092a2.99 2.99 0 0 1 .807-2.265c2.289-2.436 4.461-5.077 6.561-7.63 9.773-11.887 19.882-24.174 41.385-20.448 1.478.256 3.037.555 4.64.863l.133.025c9.24 1.777 19.71 3.791 24.977-.061 1.869-1.366 2.932-3.332 3.251-6.008.832-6.811-11.863-12.673-24.392-17.511a3.001 3.001 0 0 1 .756-5.781c19.88-2.161 42.66-5.887 42.355-15.597-.068-2.166-.913-3.927-2.583-5.385-3.488-3.046-10.526-4.588-21.519-4.714a3 3 0 0 1-.697-5.909c13.532-3.402 20.53-6.042 21.228-11.024a3 3 0 0 1 2.969-2.584l49.099-.036h.002a3 3 0 0 1 2.991 3.225l-9.506 126.42a3.001 3.001 0 0 1-2.992 2.775zm-131.91-6.462 121.922.462h7.205l9.055-120.417-43.54.032c-1.534 4.103-5.249 6.83-10.504 9.007 4.393 1.012 7.685 2.56 10.144 4.708 2.912 2.542 4.514 5.902 4.634 9.716.4 12.776-17.019 17.637-36.413 20.37 10.332 4.818 18.701 10.837 17.651 19.426-.51 4.289-2.47 7.796-5.666 10.133-7.375 5.393-19.207 3.118-29.648 1.109l-.134-.026c-1.565-.301-3.088-.594-4.531-.843-18.066-3.129-26.249 6.821-35.724 18.343-1.809 2.199-3.825 4.652-5.929 6.961z" fill="#222433"/><path d="M164.08 54.276H11.74A8.74 8.74 0 0 0 3 63.016v15.07a8.74 8.74 0 0 0 8.74 8.74h15.777c24.408-9.554 67.591-18.829 82.959-11.107 4.515 2.269 5.865 5.55 6.204 7.902.167 1.157.178 2.22.046 3.204h47.354a8.74 8.74 0 0 0 8.74-8.74v-15.07a8.74 8.74 0 0 0-8.74-8.739z" fill="#fff"/><path d="M164.08 89.826h-47.354a3.001 3.001 0 0 1-2.974-3.395c.096-.724.082-1.524-.042-2.378-.345-2.397-1.886-4.298-4.582-5.653-14.063-7.069-56.378 1.771-80.519 11.22-.349.137-.72.207-1.094.207H11.74C5.267 89.826 0 84.559 0 78.086v-15.07c0-6.473 5.267-11.74 11.74-11.74h152.34c6.474 0 11.74 5.267 11.74 11.74v15.07c0 6.473-5.266 11.74-11.74 11.74zm-44.351-6h44.352a5.747 5.747 0 0 0 5.74-5.74v-15.07a5.747 5.747 0 0 0-5.74-5.74H11.74A5.747 5.747 0 0 0 6 63.016v15.07a5.747 5.747 0 0 0 5.74 5.74h15.213c25.36-9.818 68.611-18.958 84.87-10.788 4.426 2.224 7.205 5.831 7.826 10.157.031.211.057.421.08.631z" fill="#222433"/></svg></g><g transform="translate(962.0 444.0) rotate(0.0 52.5 113.0) translate(0.0 0.0) scale(0.6890668066675417 0.6928902106263605)"><svg width="152.38" height="320.397" viewBox="0 0 152.38 320.397"><path d="M149.38 323.17V73.31C149.38 34.479 117.901 3 79.07 3h-5.8C34.458 3.022 3.005 34.488 3 73.3v249.87z" fill="#fff"/><g fill="#222433"><path d="M149.38 326.17H3a3 3 0 0 1-3-3V73.3C.005 32.906 32.874.023 73.268 0h5.802c40.423 0 73.31 32.887 73.31 73.31v249.86a3 3 0 0 1-3 3zM6 320.17h140.38V73.31C146.38 36.195 116.185 6 79.07 6h-5.8C36.183 6.021 6.005 36.212 6 73.301z"/><path d="M76.21 119.01c-7.609 0-13.8-6.191-13.8-13.8s6.191-13.8 13.8-13.8 13.8 6.19 13.8 13.8-6.191 13.8-13.8 13.8zm0-21.6c-4.301 0-7.8 3.499-7.8 7.8s3.499 7.8 7.8 7.8 7.8-3.499 7.8-7.8-3.499-7.8-7.8-7.8z"/></g></svg></g><g transform="translate(192.0 294.0) rotate(0.0 34.0 33.0) scale(0.680789716070642 0.682622096270401)"><svg width="99.884" height="96.686" viewBox="0 0 99.884 96.686"><path d="M92.561 70.014 72.851 2.163a3.002 3.002 0 0 0-4.81-1.461L1.071 56.943a3 3 0 0 0 1.53 5.271l86.68 11.61a3 3 0 0 0 3.28-3.81z" fill="#6EC1E4"/><path d="M96.883 96.686a3.003 3.003 0 0 1-2.875-2.147L67.094 3.854a2.999 2.999 0 1 1 5.751-1.707L99.76 92.832a2.999 2.999 0 0 1-2.877 3.854z" fill="#222433"/></svg></g><g transform="translate(911.0 43.0) rotate(0.0 53.5 39.0) scale(0.6488781079442086 0.6554621848739496)"><svg width="164.9" height="119" viewBox="0 0 164.9 119"><g fill="#222433"><path d="M4.7 28a3 3 0 0 1-2.988-2.768l-1.7-22a3 3 0 1 1 5.982-.463l1.7 22a3 3 0 0 1-2.76 3.223C4.853 28 4.774 28 4.7 28zm81.9 26.4a3 3 0 0 1-2.687-4.332l9.8-19.8a3 3 0 0 1 5.378 2.662l-9.8 19.8A3 3 0 0 1 86.6 54.4zm56.8 64.6a3 3 0 0 1-1.636-5.516l18.5-12a3 3 0 1 1 3.266 5.033l-18.5 12a2.99 2.99 0 0 1-1.63.483z"/></g></svg></g><g transform="translate(79.0 664.0) rotate(0.0 548.0 4.0) scale(0.6738809640924741 0.7017543859649122)"><svg width="1626.4" height="11.4" viewBox="0 0 1626.4 11.4"><path d="M1623.4 8.8H3c-1.7 0-3-1.3-3-3s1.3-3 3-3h1620.4c1.7 0 3 1.3 3 3s-1.3 3-3 3z" fill="#222433"/></svg></g></svg>